<svg width="194" height="239" viewBox="0 0 194 239" fill="none" xmlns="http://www.w3.org/2000/svg">
<path d="M171.47 44.2573C175.785 42.5488 180.1 40.8403 184.775 39.043C185.583 39.2322 186.031 39.5102 186.885 40.2253C188.157 42.2813 189.644 43.8539 189.77 45.5286C190.08 49.6611 189.766 53.8404 189.377 58.1016C185.932 59.0493 182.813 59.8964 179.617 60.4058C179.008 57.3552 177.929 55.0694 174.627 56.3696C170.716 57.9095 173.063 60.0992 174.255 62.1944C174.716 63.0043 174.717 64.0758 174.497 65.0263C172.347 65.0217 170.627 65.0189 168.859 64.571C169.482 60.4137 170.153 56.7016 171.139 52.7993C171.459 49.8253 171.464 47.0413 171.47 44.2573Z" fill="#5A159F"/>
<path d="M5.2894 112.096C5.19381 108.323 5.01938 104.55 5.05325 100.779C5.06276 99.7204 5.46229 98.5151 6.06372 97.6386C8.9485 93.434 11.9639 89.3191 14.8746 84.6053C15.7836 83.2203 16.751 82.4023 17.9764 81.6641C18.4044 81.8003 18.5745 81.8568 18.8667 82.194C28.1734 86.3044 28.1734 86.3044 26.9704 93.1481C12.4615 99.5228 11.3282 101.687 11.9939 113.519C12.0346 116.671 12.0858 119.374 12.0944 122.473C11.9838 123.932 11.9158 124.995 11.5872 126.088C10.9892 126.194 10.6518 126.27 10.2353 125.865C10.1562 120.57 10.1562 115.757 10.1562 110.168C7.63343 111.167 6.46141 111.631 5.2894 112.096Z" fill="#2B0650"/>
<path d="M76.4034 0.831497C76.7095 0.578918 77.0156 0.326332 77.8798 0C83.5821 2.98194 88.7262 6.03764 93.8718 9.54597C93.2083 14.0844 95.6651 18.7621 91.2436 22.0817C89.9934 21.0744 89.1733 19.9981 88.0985 19.3343C86.7437 18.4976 85.2155 17.7106 83.6867 17.5255C83.2225 17.4692 81.7558 19.8543 82.0609 20.4621C82.7593 21.8531 84.0811 23.2313 85.4892 23.898C87.8 24.9923 90.3801 25.5176 92.8627 26.6342C93.2072 28.6046 93.5358 30.2236 93.619 31.9296C93.2138 32.0839 93.0539 32.1513 92.5102 32.1733C85.0062 30.4215 79.8969 26.2084 76.7958 19.2682C76.8674 13.0832 76.7736 7.32771 76.6186 1.38409C76.5574 1.19597 76.4034 0.831497 76.4034 0.831497Z" fill="#57149B"/>
<path d="M120.946 233.213C120.06 233.691 119.175 234.169 117.761 234.861C113.45 233.107 109.668 231.138 105.67 228.999C104.892 228.375 104.329 227.922 103.788 227.149C104.249 222.517 104.686 218.205 105.431 214.045C106.134 214.707 106.426 215.408 106.946 215.692C108.472 216.527 110.089 217.197 111.67 217.931C112.131 216.85 113.273 215.293 112.916 214.781C112.073 213.573 110.596 212.712 109.228 211.992C107.831 211.256 106.257 210.856 104.811 209.901C105.22 207.613 105.577 205.733 106.288 203.932C107.323 204.259 108.003 204.508 108.873 205.003C112.371 208.7 115.679 212.151 118.836 216.017C118.429 220.136 117.801 223.869 118.083 227.531C118.21 229.177 120.152 230.684 121.18 232.49C121.041 232.889 120.993 233.051 120.946 233.213Z" fill="#5A159F"/>
<path d="M22.9673 186.792C18.141 189.749 13.3148 192.706 8.20131 195.837C2.87045 191.381 5.76079 185.374 5.53427 179.477C9.92024 176.992 13.903 175.008 17.9237 173.299C17.4499 175.864 13.9549 178.229 17.4594 180.295C18.3546 180.823 20.9166 178.524 22.6709 177.184C22.0362 176.238 21.4434 175.631 20.797 174.833C20.7434 174.643 20.758 174.249 21.0041 173.991C23.1564 172.826 25.0627 171.918 27.0406 171.445C27.3065 175.497 27.5003 178.96 24.3006 181.809C23.2278 182.765 23.3768 185.092 22.9673 186.792Z" fill="#5A159F"/>
<path d="M121.271 232.253C120.152 230.684 118.209 229.177 118.083 227.531C117.801 223.868 118.429 220.136 119.239 216.079C124.134 216.735 126.984 214.987 128.602 210.961C129.028 213.496 129.603 216.016 129.85 218.568C130.308 223.298 130.574 228.048 130.968 233.26C129.345 233.77 127.673 233.81 125.472 233.466C123.72 232.806 122.495 232.53 121.271 232.253Z" fill="#6119A9"/>
<path d="M17.8858 173.023C13.903 175.008 9.92027 176.992 5.60334 179.02C5.2134 173.374 5.15765 167.684 5.4885 161.534C6.49368 161.068 7.11221 161.061 7.9418 161.34C12.041 164.263 14.0578 162.976 14.6929 158.236C15.8166 157.566 16.8295 157.221 17.8622 157.298C17.9685 158.279 18.0548 158.836 18.1781 159.834C18.1053 164.524 17.9956 168.774 17.8858 173.023Z" fill="#510F93"/>
<path d="M76.6798 1.57227C76.7736 7.32776 76.8674 13.0833 76.407 19.1871C73.831 19.5253 71.8092 19.515 69.7874 19.5047C66.3588 13.9682 67.8461 8.14285 68.9598 1.9301C69.8299 1.627 70.5193 1.74382 71.7974 2.07669C73.8174 2.05258 75.2486 1.81242 76.6798 1.57227Z" fill="#6119A9"/>
<path d="M189.703 57.9998C189.766 53.8393 190.081 49.6599 189.77 45.5275C189.644 43.8527 188.157 42.2802 187.135 40.3184C188.799 40.5849 190.616 41.1943 192.737 41.8663C193.18 47.9412 193.32 53.9535 193.584 60.3891C193.708 60.8123 193.673 60.84 193.51 61.2291C193.319 68.2484 193.29 74.8787 192.867 81.6176C191.93 81.7717 191.389 81.8171 190.666 81.4612C190.227 79.0363 189.969 77.0127 189.758 74.5256C189.771 68.708 189.737 63.3539 189.703 57.9998Z" fill="#0D0416"/>
<path d="M7.73077 161.053C7.11222 161.06 6.49369 161.067 5.56628 161.075C5.22863 152.062 5.19989 143.047 5.58288 133.525C7.33677 132.661 8.67892 132.305 10.0344 132.425C9.37773 142.293 11.799 151.94 7.73077 161.053Z" fill="#460A83"/>
<path d="M10.0211 131.949C8.67894 132.305 7.33679 132.661 5.65839 133.068C5.2732 126.419 5.22426 119.718 5.23235 112.556C6.4614 111.631 7.63342 111.167 10.1561 110.168C10.1561 115.757 10.1561 120.57 10.1887 126.255C10.1545 128.734 10.0878 130.342 10.0211 131.949Z" fill="#39086A"/>
<path d="M105.885 229.17C109.668 231.138 113.45 233.106 117.597 235.124C117.57 236.093 117.177 237.011 116.596 238.255C112.782 236.761 109.156 234.941 105.288 232.639C105.325 231.161 105.605 230.165 105.885 229.17Z" fill="#1B062F"/>
<path d="M2.20679 86.7671C4.05776 86.4234 6.28117 86.1741 8.79794 86.1945C6.92061 86.5966 4.74992 86.729 2.20679 86.7671Z" fill="#490B87"/>
<path d="M121.18 232.49C122.495 232.53 123.72 232.806 125.183 233.296C124.156 233.526 122.89 233.544 121.285 233.387C120.993 233.051 121.041 232.889 121.18 232.49Z" fill="#1B062F"/>
<path d="M76.6186 1.38364C75.2486 1.81192 73.8174 2.05208 72.1472 2.08779C73.1831 1.54545 74.458 1.20754 76.0682 0.850347C76.4035 0.831045 76.5574 1.19552 76.6186 1.38364Z" fill="#1D0732"/>
<path d="M184.641 32.7522C184.081 32.592 183.556 32.1346 182.95 31.4199C183.471 31.5934 184.073 32.0242 184.641 32.7522Z" fill="#5A159F"/>
<path d="M193.597 102.998C193.484 106.697 193.372 110.397 193.331 114.554C193.275 116.094 193.147 117.177 192.904 118.654C192.287 119.294 191.785 119.54 190.889 119.637C190.403 119.315 190.31 119.142 190.33 118.514C190.348 112.33 190.255 106.602 190.251 100.423C190.504 93.9243 190.666 87.8761 191.248 81.8984C192.2 82.1636 192.731 82.3583 193.248 83.0587C193.16 85.2484 193.088 86.9323 192.886 88.7223C192.756 88.8283 192.667 88.4736 192.667 88.4736C192.667 88.4736 193.011 88.622 193.085 89.1073C193.304 94.061 193.451 98.5293 193.597 102.998Z" fill="#0D0416"/>
<path d="M96.8381 227.702C93.5397 225.481 90.5494 223.367 87.715 221.051C93.169 223.055 98.4672 225.262 103.765 227.469C104.329 227.921 104.892 228.374 105.67 228.998C105.605 230.165 105.325 231.16 104.973 232.458C102.316 231.111 99.7312 229.46 96.8381 227.702Z" fill="#1F0837"/>
<path d="M155.858 45.0764C156.599 44.4806 157.34 43.8848 158.276 42.957C159.01 43.0435 159.548 43.4619 160.05 44.526C160.525 46.8079 161.038 48.444 161.492 50.2919C161.831 51.0516 162.229 51.5996 162.891 52.3387C164.058 53.7011 164.96 54.8725 165.842 56.4995C165.856 60.3261 165.892 63.6969 165.914 67.3827C165.852 68.1153 165.804 68.5329 165.497 69.0612C164.748 69.7128 164.258 70.2536 163.561 71.0588C161.024 73.9556 159.012 72.3913 156.971 70.563C156.911 69.9135 156.879 69.5418 156.854 68.6963C156.868 66.4016 156.662 64.5498 156.92 62.765C158.081 54.7301 154.047 50.3333 146.656 47.8497C145.918 47.4525 145.399 47.2338 144.883 46.6793C144.889 45.8952 144.893 45.447 145.249 45.0808C147.361 45.9966 149.188 46.7162 150.868 47.6887C154.017 49.5104 155.815 49.045 155.858 45.0764Z" fill="#2D0654"/>
<path d="M161.551 50.08C161.038 48.4439 160.525 46.8077 159.972 44.795C163.546 44.2835 167.161 44.1485 171.123 44.1348C171.464 47.04 171.459 49.824 170.804 52.8414C168.724 54.0645 167.293 55.0541 165.863 56.0438C164.96 54.8724 164.058 53.701 162.853 52.0375C162.217 51.0569 161.884 50.5684 161.551 50.08Z" fill="#08020E"/>
<path d="M157.641 42.1383C157.69 42.1499 157.371 42.2695 157.386 42.1636C157.4 42.0577 157.592 42.1266 157.641 42.1383Z" fill="#5A159F"/>
<path d="M69.5701 19.7882C71.8092 19.5149 73.831 19.5251 76.2417 19.6165C79.8969 26.2084 85.0062 30.4215 92.4128 32.4075C91.6944 33.2259 90.6899 33.7646 89.3673 34.1516C84.1607 31.8179 79.8531 27.3962 73.6033 30.6741C72.5514 31.2258 70.3974 29.6762 68.7526 29.0975C68.1337 28.1639 67.5148 27.2304 66.7212 26.0069C67.4819 23.8352 68.4174 21.9535 69.5701 19.7882Z" fill="#08020E"/>
<path d="M41.8832 195.408C42.4769 195.084 43.1901 195.093 44.5562 195.133C46.3632 195.243 47.5171 195.323 48.8178 195.695C51.9525 197.916 54.9406 199.845 58.2437 201.927C60.7645 203.655 62.9701 205.228 64.7887 206.785C62.8717 206.529 61.3418 206.29 59.8119 206.051C57.4173 204.681 55.0228 203.31 52.2857 201.852C48.6296 199.757 45.3162 197.749 41.8832 195.408Z" fill="#0D0416"/>
<path d="M89.3673 34.152C89.4639 39.2607 88.728 43.8772 82.1839 44.6838C76.9873 36.8259 70.2309 34.8755 62.5952 38.8136C61.4538 39.4023 60.1364 39.6498 58.8945 39.7929C58.8853 39.3558 58.882 39.181 59.121 38.7746C61.0324 35.8826 67.2124 36.4479 64.8341 30.893C65.9262 30.2996 67.0184 29.7063 68.4316 29.1055C70.3973 29.6767 72.5514 31.2263 73.6032 30.6746C79.8531 27.3967 84.1607 31.8184 89.3673 34.152Z" fill="#2D0654"/>
<path d="M7.84825 75.7781C7.8495 70.6777 2.54669 71.0597 0 68.0833C4.21658 65.1928 8.63699 62.6014 13.6125 60.1211C14.4525 60.5516 14.7375 60.871 14.9595 61.5652C14.6691 64.1132 14.7128 66.0936 18.1203 65.9491C19.6436 65.0232 20.7937 64.0939 22.138 62.9391C22.8417 62.4119 23.3513 62.1101 24.0272 62.0864C25.0746 63.5467 25.9559 64.7289 26.5431 66.0955C23.3931 68.0904 20.537 69.9009 17.3405 71.8174C13.9494 73.2082 10.8988 74.4931 7.84825 75.7781Z" fill="#510F93"/>
<path d="M42.9407 47.0269C42.6035 46.2 42.2663 45.3731 41.9037 44.2009C45.654 41.6192 49.4298 39.383 53.6319 37.3418C54.6616 38.3605 55.2649 39.1841 55.6123 40.2355C51.2177 42.6511 47.0792 44.839 42.9407 47.0269Z" fill="#3A086D"/>
<path d="M55.8683 40.0077C55.265 39.1841 54.6617 38.3605 53.9684 37.2398C57.3045 34.9961 60.7307 33.0496 64.4955 30.998C67.2125 36.4481 61.0325 35.8828 58.8103 38.8415C57.4609 39.4291 56.6646 39.7184 55.8683 40.0077Z" fill="#330760"/>
<path d="M189.378 58.1016C189.737 63.355 189.771 68.7091 189.41 74.5499C188.553 75.0732 188.089 75.1098 187.365 74.9466C185.501 74.5249 183.311 73.5766 182.449 74.2728C181.468 75.0661 181.672 77.3259 180.971 78.958C179.557 78.9532 178.533 78.9387 177.451 78.5206C177.49 74.7147 177.364 71.2861 177.76 67.9188C178.045 65.4849 179.024 63.1323 179.694 60.7435C182.813 59.8964 185.932 59.0493 189.378 58.1016Z" fill="#510F93"/>
<path d="M179.617 60.4048C179.024 63.1313 178.045 65.4839 177.76 67.9178C177.364 71.2851 177.49 74.7137 177.333 78.9854C177.202 85.2255 177.132 90.5961 177.001 96.4071C176.886 99.177 176.832 101.507 176.58 103.864C176.382 103.892 175.988 103.956 175.953 103.582C175.817 102.461 175.716 101.713 175.659 100.503C175.57 91.3375 175.439 82.6355 175.372 73.5223C175.268 70.4165 175.098 67.7218 174.928 65.027C174.717 64.0748 174.716 63.0033 174.255 62.1934C173.063 60.0982 170.716 57.9085 174.627 56.3686C177.929 55.0684 179.008 57.3542 179.617 60.4048Z" fill="#1D0732"/>
<path d="M174.497 65.0259C175.098 67.7224 175.268 70.4171 175.093 73.5391C174.181 73.9787 173.612 73.9909 173.044 74.0032C171.497 71.9856 169.95 69.9681 168.465 67.2294C168.654 66.0108 168.781 65.5132 168.907 65.0156C170.627 65.0184 172.347 65.0213 174.497 65.0259Z" fill="#510F93"/>
<path d="M168.859 64.5714C168.781 65.514 168.654 66.0116 168.387 66.8677C167.667 67.1694 167.088 67.1127 166.219 67.0626C165.892 63.6985 165.856 60.3277 165.842 56.5012C167.293 55.0558 168.724 54.0662 170.489 53.0332C170.153 56.702 169.482 60.4142 168.859 64.5714Z" fill="#1B062F"/>
<path d="M27.1455 107.111C27.2035 112.505 27.2614 117.898 26.8009 123.696C24.1944 124.769 22.1063 125.436 19.9797 125.699C19.5882 123.538 19.2352 121.78 18.5321 120.101C16.1669 120.812 14.1519 121.445 12.1369 122.077C12.0857 119.375 12.0346 116.672 12.3518 113.475C14.3976 112.333 16.0868 111.714 17.7501 111.032C20.8898 109.744 24.0145 108.42 27.1455 107.111Z" fill="#3A086D"/>
<path d="M27.2737 106.652C24.0145 108.419 20.8898 109.743 17.7501 111.031C16.0868 111.713 14.3976 112.332 12.3621 113.025C11.3281 101.687 12.4614 99.5231 26.9703 93.1484C27.3248 97.483 27.3634 101.838 27.2737 106.652Z" fill="#350763"/>
<path d="M34.063 72.504C33.2556 73.0578 32.3766 74.1705 31.652 74.0776C25.4765 73.2862 22.0117 76.7259 19.0468 81.7451C18.5744 81.8581 18.4043 81.8016 17.9763 81.6654C16.8441 79.9814 15.9699 78.3771 15.0652 76.252C16.2798 74.7972 17.5248 73.8633 19.1187 72.8403C23.262 70.7834 27.0565 68.8157 30.9721 67.1816C32.0832 69.1783 33.0731 70.8411 34.063 72.504Z" fill="#490B87"/>
<path d="M12.0944 122.474C14.1519 121.445 16.1669 120.813 18.537 120.566C18.5994 125.955 18.3067 130.958 17.6386 136C15.5728 136.386 13.8824 136.732 12.1145 136.623C11.9739 132.798 11.9108 129.429 11.8477 126.059C11.9157 124.997 11.9838 123.934 12.0944 122.474Z" fill="#3F0976"/>
<path d="M11.5871 126.088C11.9107 129.428 11.9738 132.797 12.0564 137.083C12.0214 143.077 11.7308 148.168 12.0374 153.222C12.1481 155.046 13.6921 156.783 14.582 158.56C14.0577 162.976 12.041 164.263 7.94177 161.34C11.799 151.94 9.37769 142.293 10.0343 132.425C10.0877 130.342 10.1544 128.734 10.2677 126.737C10.6517 126.27 10.9892 126.194 11.5871 126.088Z" fill="#150624"/>
<path d="M32.1946 191.189C32.6935 191.062 33.5081 191.113 34.4891 191.39C33.9404 191.532 33.2254 191.449 32.1946 191.189Z" fill="#5A159F"/>
<path d="M93.8719 9.54688C98.0873 11.5237 102.304 13.9531 106.69 17.0988C106.809 18.1454 106.758 18.4757 106.362 18.6692C104.396 19.6797 102.776 20.8271 101.156 21.9745C102.761 23.1463 104.315 24.3975 105.99 25.4584C106.907 26.0388 108.027 26.2974 109.001 27.065C108.239 28.6407 107.531 29.8526 106.495 30.9593C103.094 29.2229 100.021 27.5918 96.689 25.7621C94.807 24.4413 93.1839 23.319 91.5608 22.1967C95.6652 18.763 93.2083 14.0853 93.8719 9.54688Z" fill="#510F93"/>
<path d="M91.2436 22.0826C93.1838 23.319 94.807 24.4413 96.4926 26.0025C96.2648 26.7375 95.9744 27.0337 95.3972 27.2299C94.3559 26.8478 93.6013 26.5657 92.8467 26.2837C90.3801 25.5185 87.8 24.9932 85.4892 23.899C84.0811 23.2322 82.7593 21.854 82.0609 20.463C81.7558 19.8552 83.2225 17.4702 83.6867 17.5264C85.2155 17.7115 86.7437 18.4985 88.0985 19.3352C89.1733 19.999 89.9934 21.0753 91.2436 22.0826Z" fill="#1F0837"/>
<path d="M92.8627 26.6353C93.6013 26.5659 94.3559 26.848 95.5993 27.446C97.0324 28.494 97.9767 29.2261 98.7315 30.1687C97.9981 30.9021 97.4542 31.4251 96.9104 31.9481C96.1468 31.9522 95.3831 31.9563 94.242 31.902C93.5358 30.2247 93.2072 28.6057 92.8627 26.6353Z" fill="#510F93"/>
<path d="M106.708 18.8065C106.758 18.4762 106.809 18.1458 106.946 17.3203C116.147 22.0707 125.262 27.3162 134.49 33.1169C134.366 34.8213 134.129 35.9704 133.547 37.019C131.198 36.2108 129.194 35.5032 126.941 34.556C121.942 31.3014 117.042 28.4924 112.504 25.1849C110.23 23.5274 108.619 20.9615 106.708 18.8065Z" fill="#41097A"/>
<path d="M133.892 37.1186C134.129 35.9694 134.366 34.8203 134.743 33.3457C138.718 35.199 142.553 37.3778 146.503 40.082C146.039 41.7457 145.46 42.8838 144.57 43.8706C140.804 41.5189 137.348 39.3187 133.892 37.1186Z" fill="#39086A"/>
<path d="M144.881 44.0217C145.46 42.8835 146.039 41.7454 146.752 40.3125C149.69 41.5751 152.495 43.1324 155.579 44.8832C155.815 49.0452 154.017 49.5107 150.868 47.689C149.188 46.7165 147.361 45.9969 145.244 44.8369C144.888 44.5106 144.881 44.0217 144.881 44.0217Z" fill="#330760"/>
<path d="M18.7699 72.9283C17.5248 73.8623 16.2798 74.7962 14.8669 75.9376C13.0541 77.4174 11.4814 78.8017 9.74078 79.9261C8.37976 80.8053 6.82153 81.8244 5.32902 81.8599C4.62363 81.8767 2.98993 79.1909 3.30726 78.6797C4.08127 77.433 5.74824 76.7406 7.4519 75.801C10.8987 74.4921 13.9493 73.2072 17.5362 72.0098C18.3049 72.3743 18.5374 72.6513 18.7699 72.9283Z" fill="#1F0837"/>
<path d="M105.84 202.181C105.182 196.309 106.461 191.566 113.471 190.164C117.998 193.323 121.743 197.019 126.245 198.795C128.828 199.814 132.64 197.717 135.824 197.379C135.461 199.164 135.172 200.591 134.882 202.018C133.613 203.027 132.343 204.037 130.581 205.44C123.035 204.797 115.605 206.566 108.607 202.821C107.479 202.462 106.64 202.259 105.84 202.079C105.88 202.1 105.84 202.181 105.84 202.181Z" fill="#2D0654"/>
<path d="M108.895 202.977C115.604 206.565 123.035 204.796 130.427 205.699C131.059 205.93 131.352 206.295 131.843 206.947C130.919 208.255 129.796 209.276 128.638 210.629C126.984 214.986 124.134 216.734 119.39 215.664C115.679 212.15 112.371 208.699 108.927 204.556C108.826 203.569 108.861 203.273 108.895 202.977Z" fill="#08020E"/>
<path d="M173.106 167.269C177.485 164.95 181.863 162.63 186.573 160.211C189.139 162.624 191.374 165.135 193.791 167.951C191.834 169.531 189.694 170.808 187.136 171.852C186.069 171.113 185.419 170.608 184.538 169.982C183.86 169.606 183.412 169.351 182.794 168.913C182.149 168.395 181.675 168.059 181.201 167.724C181.103 168.522 181.004 169.32 180.589 170.21C178.88 170.915 177.488 171.53 175.811 171.963C174.656 170.547 173.786 169.312 172.968 167.876C173.019 167.675 173.106 167.269 173.106 167.269Z" fill="#510F93"/>
<path d="M149.934 190.146C149.922 190.928 149.91 191.71 149.895 192.888C145.099 196.101 140.306 198.916 135.198 201.875C135.172 200.591 135.461 199.164 135.815 197.38C135.88 197.023 135.878 197.038 136.201 197.015C137.314 196.679 138.103 196.366 139.172 195.942C139.931 195.224 140.409 194.616 140.885 194.016C140.883 194.023 140.868 194.025 141.227 194.008C143.017 192.999 144.448 192.006 145.881 191.018C145.882 191.022 145.876 191.018 146.224 191.015C147.693 190.723 148.813 190.435 149.934 190.146Z" fill="#39086A"/>
<path d="M184.768 170.104C185.418 170.608 186.069 171.113 186.797 171.942C186.39 172.502 185.904 172.738 185.14 172.988C184.863 173.002 184.887 173.026 184.897 172.668C184.861 171.574 184.815 170.839 184.768 170.104Z" fill="#3F0976"/>
<path d="M103.788 227.149C98.4672 225.263 93.169 223.056 87.3958 220.835C86.078 220.238 85.2352 219.656 83.9939 218.843C83.3631 218.136 83.1309 217.66 82.8595 216.866C82.7863 216.12 82.7525 215.693 82.7832 214.894C83.2626 213.627 83.6775 212.733 84.3756 211.94C85.3836 212.391 86.1084 212.74 87.0034 213.408C88.8144 214.419 90.4188 215.288 92.1296 215.64C92.4355 215.703 93.8216 212.827 93.6201 212.665C92.3664 211.659 90.837 210.958 89.3269 210.328C88.5939 210.023 87.7045 210.093 86.8816 209.779C86.8773 209.565 86.8191 209.14 86.8393 208.75C87.2019 206.848 87.5442 205.338 88.2098 203.943C89.9692 204.728 91.4055 205.395 93.0807 206.302C97.2547 208.992 101.19 211.442 105.125 213.893C104.687 218.205 104.249 222.517 103.788 227.149Z" fill="#510F93"/>
<path d="M91.0958 195.275C91.9202 195.765 93.3388 196.126 93.4775 196.765C94.9712 203.645 99.8174 203.429 105.46 202.328C105.84 202.181 105.88 202.1 105.718 202.372C105.682 203.047 105.808 203.45 105.934 203.854C105.577 205.733 105.22 207.613 104.471 209.795C100.712 208.369 97.3455 206.641 93.7615 204.683C92.3327 203.617 91.1211 202.781 89.9175 201.529C90.3155 199.168 90.7057 197.222 91.0958 195.275Z" fill="#510F93"/>
<path d="M93.9787 204.912C97.3455 206.64 100.712 208.368 104.42 210.202C106.257 210.855 107.831 211.255 109.228 211.99C110.596 212.711 112.073 213.571 112.916 214.78C113.273 215.291 112.131 216.848 111.67 217.93C110.089 217.195 108.472 216.526 106.946 215.691C106.426 215.406 106.134 214.706 105.431 214.044C101.19 211.441 97.2546 208.99 93.2517 206.091C93.4487 205.399 93.7137 205.156 93.9787 204.912Z" fill="#1F0837"/>
<path d="M106.288 203.931C105.808 203.45 105.682 203.046 105.678 202.35C106.64 202.259 107.479 202.461 108.607 202.82C108.861 203.273 108.826 203.569 108.738 204.311C108.003 204.507 107.323 204.258 106.288 203.931Z" fill="#020003"/>
<path d="M23.7033 158.035C24.5509 160.559 25.4655 163.064 26.2205 165.617C26.6608 167.105 26.8457 168.669 27.0573 170.605C25.0627 171.918 23.1565 172.826 20.7907 173.622C20.2345 169.018 20.1379 164.527 20.1555 159.811C20.2876 159.252 20.3055 158.918 20.3031 158.414C20.2828 158.245 20.3112 157.906 20.7351 157.927C22.0071 157.977 22.8552 158.006 23.7033 158.035Z" fill="#510F93"/>
<path d="M20.0413 160.034C20.1379 164.526 20.2345 169.017 20.5446 173.878C20.7581 174.248 20.7435 174.642 20.831 175.156C21.5166 176.287 22.1148 176.905 22.7129 177.522C20.9167 178.522 18.3547 180.822 17.4594 180.294C13.9549 178.228 17.45 175.863 17.9238 173.298C17.9956 168.773 18.1054 164.523 18.3616 159.743C18.508 159.213 18.8632 159.01 19.0613 159.016C19.2594 159.022 19.6556 159.018 19.7395 159.277C19.8961 159.702 19.9687 159.868 20.0413 160.034Z" fill="#0D0416"/>
<path d="M22.671 177.185C22.1147 176.906 21.5166 176.289 20.8845 175.348C21.4434 175.631 22.0362 176.238 22.671 177.185Z" fill="#510F93"/>
<path d="M47.8826 207.021C48.9627 207.489 50.0424 207.956 51.1222 208.423C50.8898 208.804 50.6574 209.185 50.425 209.566C49.6316 208.922 48.8382 208.279 47.9633 207.329C47.8817 207.023 47.8826 207.021 47.8826 207.021Z" fill="#6C1FB8"/>
<path d="M64.8683 209.067C63.4444 208.404 62.0206 207.741 60.2896 206.927C59.9825 206.776 59.9207 206.409 59.8663 206.23C61.3419 206.292 62.8718 206.531 64.77 206.847C65.1383 206.925 65.0086 206.911 64.9733 207.27C64.9148 208.108 64.8916 208.588 64.8683 209.067Z" fill="#150624"/>
<path d="M14.6929 158.237C13.6922 156.784 12.1481 155.047 12.0375 153.223C11.7308 148.169 12.0214 143.078 12.1339 137.54C13.8824 136.732 15.5728 136.386 17.6298 136.416C18.2704 138.871 18.5445 140.95 18.8066 143.493C18.6564 148.301 18.5182 152.646 18.2457 156.962C18.1114 156.932 17.8423 156.875 17.8423 156.875C16.8295 157.221 15.8166 157.567 14.6929 158.237Z" fill="#490B87"/>
<path d="M17.8622 157.299C17.8423 156.876 18.1114 156.932 18.3369 157.296C18.6626 158.11 18.7629 158.561 18.8632 159.011C18.8632 159.011 18.508 159.215 18.3246 159.305C18.0548 158.837 17.9685 158.279 17.8622 157.299Z" fill="#3F0976"/>
<path d="M187.626 75.1466C188.089 75.11 188.552 75.0734 189.363 75.0137C189.969 77.0141 190.227 79.0377 190.677 81.4495C190.868 81.8377 190.828 81.8294 190.828 81.8294C190.666 87.8776 190.504 93.9257 189.967 100.493C188.18 101.332 186.767 101.652 185.304 101.535C186.045 92.4473 186.835 83.797 187.626 75.1466Z" fill="#460A83"/>
<path d="M192.867 81.6191C193.439 81.7179 193.498 81.9548 193.351 82.3879C192.731 82.3598 192.2 82.1652 191.248 81.9C190.828 81.8295 190.868 81.8378 190.858 81.8509C191.389 81.8186 191.93 81.7732 192.867 81.6191Z" fill="#4A187D"/>
<path d="M57.2183 223.178C57.1479 222.725 57.3826 222.473 57.8162 222.055C58.8965 222.422 59.7779 222.956 60.7806 223.777C59.7757 223.836 58.6495 223.607 57.2183 223.178Z" fill="#391260"/>
<path d="M165.809 197.535C164.356 198.274 162.959 198.716 161.209 199.286C161.108 198.849 161.359 198.285 161.75 197.455C162.994 196.823 164.099 196.457 165.552 196.062C165.888 196.435 165.876 196.837 165.809 197.535Z" fill="#57149B"/>
<path d="M168.594 146.026C168.576 141.024 168.557 136.022 168.969 130.47C174.812 127.057 181.395 125.749 184.134 119.001C184.369 118.985 184.84 118.949 185.104 119.127C186.985 119.193 188.601 119.082 190.217 118.971C190.31 119.143 190.403 119.316 190.632 119.748C190.294 125.472 189.819 130.936 188.763 136.692C186.823 136.359 185.464 135.736 184.113 135.116C182.146 140.879 175.84 145.366 168.594 146.026Z" fill="#330760"/>
<path d="M168.463 146.297C175.84 145.365 182.146 140.878 184.113 135.115C185.464 135.735 186.823 136.358 188.524 136.997C187.646 144.416 182.07 147.985 176.059 151.606C174.848 151.617 173.83 151.362 172.379 150.772C171.254 150.286 170.56 150.135 169.867 149.984C169.355 148.846 168.843 147.707 168.463 146.297Z" fill="#2B0650"/>
<path d="M190.33 118.516C188.601 119.083 186.985 119.194 185.117 118.667C185.028 112.677 185.191 107.324 185.355 101.972C186.767 101.652 188.18 101.332 189.876 100.943C190.255 106.604 190.348 112.332 190.33 118.516Z" fill="#3A086D"/>
<path d="M192.886 88.7233C193.016 88.6173 192.948 88.6131 192.98 88.618C193.011 88.623 192.667 88.4746 192.667 88.4746C192.667 88.4746 192.756 88.8293 192.886 88.7233Z" fill="#7223C0"/>
<path d="M76.3099 215.784C73.3864 214.043 70.8081 212.404 68.0373 210.138C67.8424 208.776 67.84 208.04 68.1634 207.4C73.2323 210.086 77.9754 212.676 82.7185 215.265C82.7524 215.692 82.7862 216.119 82.4723 216.841C81.3627 217.273 80.6009 217.411 79.8391 217.549C78.7778 216.995 77.7164 216.44 76.3099 215.784Z" fill="#150624"/>
<path d="M79.9446 217.825C80.601 217.412 81.3628 217.274 82.5117 217.16C83.131 217.66 83.3631 218.135 83.7258 218.844C82.5876 218.752 81.3187 218.426 79.9446 217.825Z" fill="#7726C8"/>
<path d="M139.992 60.8773C138.14 59.703 136.288 58.5287 134.158 56.7553C132.876 51.05 133.192 46.0287 135.162 41.2285C138.61 43.2475 141.746 45.1314 144.881 47.0153C145.399 47.2339 145.918 47.4526 146.657 48.313C146.879 50.898 147.157 52.892 146.813 54.7717C146.353 57.2802 145.409 59.7 144.341 62.0658C142.671 61.6083 141.332 61.2428 139.992 60.8773Z" fill="#39086A"/>
<path d="M144.673 62.1584C145.409 59.7005 146.353 57.2808 146.813 54.7723C147.157 52.8925 146.879 50.8985 146.877 48.4922C154.047 50.334 158.081 54.7308 156.92 62.7657C156.662 64.5504 156.868 66.4023 156.499 68.6517C155.426 69.0179 154.714 68.9556 154.002 68.8934C151.18 67.3511 148.358 65.8089 145.228 63.7746C144.838 62.9079 144.755 62.5332 144.673 62.1584Z" fill="#330760"/>
<path d="M144.883 46.6802C141.746 45.1322 138.61 43.2482 134.9 41.0173C131.842 39.1301 129.36 37.59 126.946 35.7338C127.073 35.21 127.131 35.0025 127.189 34.7949C129.194 35.5025 131.198 36.2101 133.547 37.0182C137.348 39.319 140.804 41.5192 144.57 43.8708C144.881 44.0223 144.888 44.5112 144.893 44.7554C144.893 45.4478 144.889 45.896 144.883 46.6802Z" fill="#2B0650"/>
<path d="M154.154 69.1715C154.714 68.9559 155.426 69.0182 156.493 69.1257C156.879 69.5427 156.911 69.9144 156.971 70.564C156.102 70.3777 155.204 69.9136 154.154 69.1715Z" fill="#1D0732"/>
<path d="M165.497 69.0625C165.29 69.532 164.823 70.1123 164.062 70.7441C164.258 70.2549 164.749 69.7141 165.497 69.0625Z" fill="#1D0732"/>
<path d="M161.492 50.293C161.884 50.5697 162.217 51.0581 162.588 51.8476C162.229 51.6007 161.831 51.0527 161.492 50.293Z" fill="#1D0732"/>
<path d="M78.8979 156.837C76.0303 160.374 73.6669 164.636 70.5569 165.176C63.9667 166.321 56.9872 165.525 48.8823 165.525C56.4641 132.07 63.4515 100.39 71.1328 68.8555C71.7913 66.1517 76.9393 62.7358 80.2049 62.5367C92.4414 61.7907 104.78 61.9241 117.038 62.4955C119.751 62.622 124.104 65.5115 124.642 67.7623C132.275 99.6902 139.379 131.728 146.882 164.938C141.683 165.18 137.674 165.025 133.795 165.611C122.249 167.355 115.838 163.668 116.051 152.104C116.2 143.989 111.234 141.682 103.37 142.642C100.954 142.937 98.3953 143.028 96.0137 142.631C84.5618 140.724 79.1601 145.306 78.8979 156.837ZM90.8711 93.1293C88.9141 102.989 86.9571 112.848 84.8968 123.228C94.5315 123.228 102.364 123.228 111.107 123.228C108.837 111.858 107.087 101.405 104.496 91.1366C103.714 88.0348 100.6 85.4426 98.5533 82.6169C96.1059 85.4982 93.6586 88.3795 90.8711 93.1293Z" fill="#8D34E5"/>
<path d="M123.801 183.857C127.207 181.849 130.614 179.842 134.481 178.117C138.018 183.273 140.571 183.984 145.369 181.37C147.507 180.205 149.691 179.125 151.855 178.279C151.855 178.733 151.856 178.914 151.659 179.359C148.199 181.708 145.541 183.977 148.718 188.318C147.653 189.382 146.764 190.2 145.876 191.018C145.876 191.018 145.882 191.022 145.549 191.083C143.766 192.105 142.317 193.065 140.868 194.025C140.868 194.025 140.882 194.023 140.608 194.081C139.844 194.419 139.356 194.699 138.536 194.987C137.764 195.007 137.323 195.02 136.697 194.75C134.299 192.87 131.986 191.392 129.897 189.646C127.752 187.852 125.824 185.797 123.801 183.857Z" fill="#3A086D"/>
<path d="M39.695 190.443C36.7359 189.854 35.0837 188.44 35.2673 185.03C35.3443 183.598 34.4958 181.383 33.3739 180.745C27.4871 177.401 29.6968 171.976 30.0632 167.448C30.413 163.128 35.7873 162.535 40.7147 166.656C40.4776 171.767 40.057 176.166 40.097 180.561C40.1079 181.758 41.2345 183.384 42.3182 184.05C45.3711 185.925 48.668 187.403 52.0718 189.301C54.487 191.038 56.699 192.513 58.5966 194.002C58.0727 194.022 57.8632 194.027 57.3009 194.009C54.5936 192.992 52.239 191.998 49.6374 190.776C48.0028 189.671 46.5817 188.841 45.2345 187.906C41.9198 185.603 40.0965 186.442 39.695 190.443Z" fill="#2D0654"/>
<path d="M70.4933 51.4106C64.9491 54.7234 59.405 58.0362 53.3764 61.0442C51.5325 58.8596 50.173 56.9798 49.1236 55.017C52.3657 53.723 52.3657 53.723 50.6346 51.8565C48.8522 50.786 47.3478 49.8864 46.0531 48.7234C50.1364 46.3038 54.01 44.1477 58.0067 42.3086C62.2509 45.5539 66.3721 48.4822 70.4933 51.4106ZM56.7405 50.819C56.3681 50.4866 55.9957 50.1542 55.6233 49.8219C55.3505 50.1737 55.0777 50.5255 54.805 50.8773C55.3321 50.9514 55.8592 51.0256 56.7405 50.819Z" fill="#3A086D"/>
<path d="M70.8158 51.3458C66.3721 48.4827 62.2509 45.5544 58.131 42.0659C58.3883 41.0222 58.6443 40.5387 58.9004 40.0553C60.1364 39.65 61.4538 39.4025 62.5952 38.8138C70.2309 34.8757 76.9872 36.8261 81.8209 44.7539C78.322 47.1551 74.7301 49.2179 70.8158 51.3458Z" fill="#350763"/>
<path d="M51.8686 189.038C48.6679 187.403 45.3711 185.925 42.3182 184.05C41.2345 183.384 40.1079 181.758 40.097 180.56C40.057 176.166 40.4776 171.767 40.8834 166.934C44.8993 168.644 48.7565 170.791 52.7204 173.645C52.5076 179.248 52.1881 184.143 51.8686 189.038Z" fill="#350763"/>
<path d="M183.899 119.017C181.395 125.749 174.812 127.056 169.029 130.011C168.612 125.397 168.566 120.694 168.989 115.489C173.236 114.593 175.012 112.591 174.944 108.705C174.917 107.129 175.618 105.54 175.988 103.956C175.988 103.956 176.382 103.892 176.605 104.328C176.983 112.952 176.983 112.952 183.668 113.413C183.78 115.567 183.84 117.292 183.899 119.017Z" fill="#3A086D"/>
<path d="M97.0608 32.256C97.4542 31.4246 97.998 30.9016 99.0736 30.2578C101.201 30.9758 102.799 31.8122 104.393 32.6538C110.884 36.0791 117.374 39.506 124.104 43.2273C124.855 46.3714 125.365 49.2207 125.876 52.0699C118.188 47.8026 110.372 43.7447 102.889 39.1451C100.536 37.6994 99.0785 34.7989 97.0608 32.256Z" fill="#460A83"/>
<path d="M123.458 183.939C125.824 185.796 127.752 187.851 129.897 189.645C131.986 191.391 134.299 192.87 136.574 195C136.383 196.036 136.13 196.536 135.877 197.037C135.877 197.037 135.88 197.022 135.889 197.022C132.64 197.716 128.828 199.813 126.245 198.794C121.743 197.018 117.998 193.322 113.822 190.072C116.844 187.816 119.98 185.92 123.458 183.939Z" fill="#350763"/>
<path d="M175.805 162.92C174.835 164.03 173.658 164.881 171.891 166.026C166.162 169.221 161.023 172.121 155.6 174.845C153.487 172.747 151.658 170.827 149.829 168.907C154.351 166.176 158.669 162.972 163.475 160.897C166.242 159.703 169.798 160.338 173.367 160.051C174.355 160.855 174.976 161.758 175.805 162.92Z" fill="#490B87"/>
<path d="M52.0718 189.302C52.1881 184.144 52.5076 179.249 52.9224 173.896C56.9142 175.572 60.8107 177.704 64.7771 180.537C64.5195 183.172 64.192 185.107 63.5909 187.142C62.8427 187.821 62.3683 188.399 61.8828 189.359C61.5566 191.448 61.2415 193.158 60.6671 194.775C59.9088 194.452 59.4099 194.221 58.9109 193.99C56.699 192.514 54.487 191.039 52.0718 189.302Z" fill="#3A086D"/>
<path d="M172.984 74.3927C173.612 73.9899 174.18 73.9777 175.028 73.9492C175.439 82.6351 175.57 91.3371 175.237 100.513C172.74 101.012 170.708 101.037 168.676 101.062C168.597 95.7813 168.328 90.493 168.546 85.2249C168.618 83.4823 169.956 81.7962 170.695 80.0759C171.45 78.3171 172.182 76.5479 172.984 74.3927Z" fill="#490B87"/>
<path d="M149.48 168.977C151.658 170.828 153.487 172.748 155.377 175.067C154.244 176.313 153.049 177.16 151.855 178.006C149.691 179.125 147.507 180.204 145.369 181.369C140.571 183.983 138.018 183.272 134.828 178.03C139.521 174.788 144.326 171.917 149.48 168.977Z" fill="#41097A"/>
<path d="M48.8135 55.1008C50.173 56.9807 51.5326 58.8605 53.0156 61.0975C47.0125 65.0783 40.8859 68.702 34.4112 72.4148C33.0732 70.841 32.0833 69.1781 31.1877 66.9349C32.8269 65.3927 34.4276 64.5089 35.9055 63.4534C39.3627 60.9842 42.761 58.4327 46.3966 55.7852C47.3033 55.1328 47.9966 54.6096 48.7227 54.3398C48.7748 54.7624 48.7941 54.9316 48.8135 55.1008Z" fill="#460A83"/>
<path d="M126.097 52.3259C125.365 49.2201 124.855 46.3708 124.099 42.9266C123.856 41.9308 123.857 41.5299 124.005 40.7625C124.441 38.8454 124.732 37.2946 125.332 35.793C126.053 35.9112 126.466 35.9803 126.878 36.0494C129.36 37.5895 131.842 39.1296 134.586 40.8816C133.192 46.0288 132.876 51.0502 133.879 56.574C131.357 55.5218 128.838 54.0522 126.097 52.3259Z" fill="#3F0976"/>
<path d="M23.93 157.733C22.8553 158.005 22.0072 157.976 20.6709 157.539C20.0708 152.435 19.9588 147.74 19.8936 142.645C20.0302 141.177 20.1202 140.109 20.5591 139.001C22.9331 138.311 24.958 137.66 26.983 137.01C27.0663 141.65 27.485 146.319 27.0891 150.918C26.8963 153.157 25.1822 155.266 23.93 157.733Z" fill="#490B87"/>
<path d="M90.8974 195.032C90.7057 197.22 90.3156 199.167 89.5898 201.414C84.7941 199.477 80.334 197.239 75.8761 195.013C75.8782 195.025 75.9026 195.028 75.9139 194.772C75.9142 194.344 75.9032 194.173 75.8904 193.6C76.2193 191.141 76.5499 189.084 76.8804 187.027C81.4866 189.615 86.0928 192.202 90.8974 195.032Z" fill="#490B87"/>
<path d="M27.0574 136.553C24.958 137.661 22.9331 138.311 20.4951 138.54C20.0609 134.113 20.0396 130.107 20.0183 126.102C22.1064 125.435 24.1944 124.768 26.6563 124.078C27.064 128.068 27.0979 132.082 27.0574 136.553Z" fill="#460A83"/>
<path d="M76.6405 186.776C76.5498 189.085 76.2192 191.141 75.6489 193.599C75.4092 194 74.9268 193.982 74.6738 193.758C70.9021 191.369 67.3833 189.205 63.8645 187.041C64.192 185.106 64.5195 183.171 64.936 180.809C68.8169 182.429 72.6088 184.477 76.6405 186.776Z" fill="#41097A"/>
<path d="M168.6 101.518C170.708 101.037 172.741 101.012 175.194 100.977C175.716 101.713 175.817 102.46 175.953 103.582C175.618 105.539 174.917 107.128 174.944 108.704C175.012 112.59 173.236 114.592 169.06 115.03C168.615 110.706 168.569 106.34 168.6 101.518Z" fill="#41097A"/>
<path d="M39.9338 190.667C40.0964 186.443 41.9197 185.604 45.2345 187.906C46.5816 188.842 48.0028 189.671 49.5592 191.143C49.3758 192.96 49.0234 194.182 48.6711 195.404C47.5171 195.324 46.3631 195.244 45.091 195.149C43.3728 193.719 41.7728 192.305 39.9338 190.667Z" fill="#330760"/>
<path d="M144.341 62.0673C144.755 62.5341 144.838 62.9088 144.969 63.5665C143.45 63.056 141.882 62.2624 140.154 61.1738C141.332 61.2443 142.671 61.6098 144.341 62.0673Z" fill="#1D0732"/>
<path d="M170.122 150.177C170.56 150.135 171.254 150.286 172.088 150.643C171.612 150.689 170.995 150.529 170.122 150.177Z" fill="#08020E"/>
<path d="M82.7831 214.893C77.9755 212.676 73.2324 210.086 67.8213 207.26C66.4384 206.986 65.7235 206.948 65.0086 206.91C65.0086 206.91 65.1383 206.923 65.157 206.862C62.9701 205.228 60.7645 203.655 58.2738 201.564C58.2891 199.345 58.5895 197.643 59.2552 195.975C60.3495 196.041 61.0784 196.074 61.9127 196.426C64.5291 198.527 67.011 200.352 69.557 202.083C74.3827 205.363 79.2452 208.589 84.0923 211.838C83.6775 212.732 83.2626 213.626 82.7831 214.893Z" fill="#3F0976"/>
<path d="M58.8898 195.942C58.5895 197.644 58.2891 199.346 57.9587 201.411C54.9405 199.845 51.9525 197.917 48.8177 195.696C49.0235 194.182 49.3758 192.96 49.8063 191.371C52.239 191.999 54.5935 192.993 57.4662 194.245C58.2861 194.983 58.588 195.462 58.8898 195.942Z" fill="#39086A"/>
<path d="M7.75289 50.1257C8.29398 49.8247 8.76728 49.8108 9.57885 49.9053C9.43755 50.4646 8.95798 50.9152 8.15648 51.1747C7.78472 50.7933 7.73491 50.603 7.75289 50.1257Z" fill="#391260"/>
<path d="M6.54248 51.7656C6.40213 52.4137 5.94653 52.8617 5.17407 53.1373C5.31387 52.4985 5.77055 52.032 6.54248 51.7656Z" fill="#391260"/>
<path d="M7.54412 50.9551C7.73584 51.3272 7.61082 51.6875 7.16224 52.014C6.96826 51.6346 7.09782 51.2889 7.54412 50.9551Z" fill="#391260"/>
<path d="M33.9173 55.0741C35.6656 54.4011 37.414 53.7281 39.6802 53.2402C41.0912 54.6223 41.9843 55.8193 42.5862 57.1998C37.1424 60.2259 31.9897 63.0687 26.837 65.9114C25.9558 64.7292 25.0745 63.547 24.2319 61.8364C27.4861 59.2301 30.7017 57.1521 33.9173 55.0741Z" fill="#460A83"/>
<path d="M26.5431 66.0949C31.9898 63.0678 37.1425 60.225 42.9064 57.0745C44.4061 56.4825 45.2947 56.1983 46.1832 55.9141C42.761 58.4323 39.3627 60.9838 35.9055 63.4529C34.4276 64.5085 32.8269 65.3923 31.0666 66.6007C27.0566 68.8151 23.2621 70.7829 19.1188 72.8397C18.5375 72.6518 18.305 72.3748 17.8767 71.9043C20.537 69.9003 23.3931 68.0898 26.5431 66.0949Z" fill="#2D0654"/>
<path d="M33.9001 54.6759C30.7017 57.1518 27.4862 59.2298 24.0657 61.5582C23.3512 62.1102 22.8416 62.4119 21.835 62.941C20.1411 64.0941 18.944 65.0199 17.747 65.9457C14.7127 66.0936 14.669 64.1133 14.9594 61.5653C21.0509 58.6955 27.0795 56.2004 33.4761 53.5938C33.8571 53.7474 33.87 54.0126 33.9001 54.6759Z" fill="#1D0732"/>
<path d="M18.1202 65.9487C18.9441 65.0194 20.1411 64.0936 21.6409 63.166C20.7937 64.0935 19.6436 65.0228 18.1202 65.9487Z" fill="#460A83"/>
<path d="M40.6582 32.1888C40.7426 32.0092 40.903 31.9138 41.0633 31.8184C40.9535 31.9699 40.8438 32.1214 40.6582 32.1888Z" fill="#6E21BB"/>
<path d="M10.42 48.9336C10.9275 49.0404 11.212 49.299 11.6816 49.7784C11.4111 50.1272 10.9556 50.2553 10.1826 50.2161C9.97579 49.7277 10.0864 49.4066 10.42 48.9336Z" fill="#391260"/>
<path d="M177.062 95.9669C177.132 90.5964 177.202 85.2257 177.39 79.3893C178.533 78.9379 179.557 78.9524 181.216 79.2051C182.38 84.6015 182.91 89.7597 183.087 94.9534C180.844 95.315 178.953 95.641 177.062 95.9669Z" fill="#490B87"/>
<path d="M183.439 94.919C182.91 89.7608 182.38 84.6027 181.606 79.1966C181.672 77.3262 181.468 75.0665 182.449 74.2732C183.311 73.577 185.501 74.5252 187.365 74.9469C186.835 83.7971 186.045 92.4474 185.304 101.535C185.191 107.324 185.028 112.677 184.853 118.489C184.84 118.95 184.369 118.985 184.134 119.002C183.84 117.293 183.78 115.568 183.722 112.952C183.628 106.347 183.534 100.633 183.439 94.919Z" fill="#1B062F"/>
<path d="M183.087 94.9531C183.534 100.631 183.628 106.345 183.669 112.522C176.983 112.952 176.983 112.952 176.803 104.3C176.832 101.506 176.886 99.177 177.001 96.407C178.953 95.6407 180.844 95.3147 183.087 94.9531Z" fill="#3F0976"/>
<path d="M19.9797 125.699C20.0396 130.107 20.0608 134.112 20.1461 138.579C20.1201 140.109 20.0302 141.177 19.6366 142.64C19.1614 143.033 18.99 143.03 18.8185 143.028C18.5445 140.949 18.2705 138.87 18.0052 136.376C18.3067 130.957 18.5994 125.954 18.8872 120.486C19.2353 121.779 19.5882 123.537 19.9797 125.699Z" fill="#2B0650"/>
<path d="M125.023 35.7436C124.732 37.2944 124.441 38.8451 123.672 40.6485C117.737 37.6219 112.28 34.3426 106.824 31.0633C107.531 29.8515 108.239 28.6396 109.338 27.1758C114.828 29.8638 119.925 32.8037 125.023 35.7436Z" fill="#460A83"/>
<path d="M125.332 35.7926C119.925 32.8036 114.828 29.8637 109.392 26.8118C108.027 26.2962 106.907 26.0375 105.99 25.4572C104.315 24.3963 102.761 23.1451 101.156 21.9733C102.776 20.8259 104.396 19.6785 106.362 18.668C108.619 20.9599 110.23 23.5257 112.504 25.1832C117.041 28.4907 121.942 31.2997 126.941 34.5543C127.131 35.0015 127.073 35.2091 126.946 35.7328C126.466 35.9799 126.053 35.9108 125.332 35.7926Z" fill="#1F0837"/>
<path d="M106.495 30.9595C112.28 34.3439 117.737 37.6232 123.526 41.0163C123.857 41.531 123.856 41.9319 123.859 42.6328C117.374 39.5065 110.884 36.0796 104.393 32.6542C102.799 31.8127 101.201 30.9762 99.2631 30.0478C97.9767 29.2261 97.0324 28.4941 95.886 27.5461C95.9743 27.0339 96.2648 26.7377 96.7515 26.2012C100.021 27.592 103.094 29.2232 106.495 30.9595Z" fill="#2D0654"/>
<path d="M86.4662 19.5842C86.5139 19.5564 86.4184 19.6119 86.4662 19.5842Z" fill="#510F93"/>
<path d="M151.855 178.278C153.049 177.159 154.244 176.312 155.662 175.244C161.023 172.122 166.162 169.222 171.631 166.201C172.205 166.354 172.449 166.626 172.9 167.084C173.106 167.269 173.019 167.675 172.64 167.997C167.429 171.172 162.597 174.024 157.432 176.972C155.352 177.743 153.604 178.419 151.856 179.094C151.856 178.913 151.855 178.731 151.855 178.278Z" fill="#2D0654"/>
<path d="M157.765 176.878C162.597 174.026 167.429 171.173 172.589 168.199C173.786 169.313 174.656 170.548 175.578 172.219C170.755 175.484 165.879 178.313 160.718 180.945C159.544 179.457 158.654 178.168 157.765 176.878Z" fill="#490B87"/>
<path d="M161.002 181.142C165.879 178.313 170.755 175.484 175.864 172.4C177.488 171.531 178.88 170.916 180.883 170.173C181.985 169.728 182.475 169.413 182.964 169.098C183.412 169.352 183.86 169.607 184.538 169.983C184.815 170.84 184.861 171.575 184.909 172.68C181.215 174.219 177.343 175.011 173.867 176.646C168.641 179.105 163.693 182.155 158.094 184.874C157.321 184.569 157.104 184.324 157.176 183.891C158.63 182.863 159.816 182.003 161.002 181.142Z" fill="#1F0837"/>
<path d="M182.794 168.914C182.475 169.413 181.985 169.728 181.201 170.081C181.004 169.321 181.103 168.523 181.201 167.725C181.675 168.06 182.149 168.396 182.794 168.914Z" fill="#490B87"/>
<path d="M156.91 184.059C157.104 184.324 157.321 184.569 157.746 184.958C155.463 186.681 152.996 188.242 150.231 189.974C148.813 190.435 147.693 190.723 146.224 191.015C146.764 190.2 147.653 189.382 149.049 188.217C152.007 186.599 154.458 185.329 156.91 184.059Z" fill="#2B0650"/>
<path d="M141.227 194.007C142.317 193.064 143.766 192.104 145.548 191.078C144.448 192.006 143.017 192.998 141.227 194.007Z" fill="#2B0650"/>
<path d="M136.201 197.014C136.13 196.536 136.383 196.036 136.758 195.284C137.323 195.019 137.764 195.006 138.543 195.254C138.884 195.694 138.887 195.873 138.891 196.052C138.103 196.365 137.314 196.678 136.201 197.014Z" fill="#2D0654"/>
<path d="M139.172 195.94C138.887 195.873 138.884 195.694 138.874 195.247C139.356 194.698 139.844 194.417 140.61 194.072C140.409 194.615 139.931 195.222 139.172 195.94Z" fill="#2B0650"/>
<path d="M87.8865 203.826C87.5441 205.337 87.2018 206.847 86.5009 208.656C81.0345 206.016 75.9267 203.078 70.8347 199.697C70.8592 197.499 70.8679 195.742 71.2133 194.008C72.2244 194.046 72.8987 194.061 73.8336 194.269C74.6969 194.651 75.2997 194.839 75.9025 195.028C75.9025 195.028 75.8781 195.025 75.9345 195.359C79.9561 198.405 83.9213 201.115 87.8865 203.826Z" fill="#460A83"/>
<path d="M70.8188 200.141C75.9266 203.079 81.0345 206.017 86.4807 209.047C86.819 209.14 86.8772 209.565 86.8987 210.166C86.8913 211.542 86.8622 212.316 86.8331 213.09C86.1083 212.74 85.3835 212.391 84.3755 211.94C79.2451 208.59 74.3827 205.364 69.557 202.084C67.011 200.353 64.529 198.528 61.9389 196.396C61.8596 196.045 61.9088 195.987 62.2534 196.067C65.3382 197.478 68.0785 198.809 70.8188 200.141Z" fill="#1F0837"/>
<path d="M88.2097 203.943C83.9213 201.116 79.9562 198.405 75.9325 195.348C80.334 197.239 84.7941 199.477 89.5818 201.83C91.1211 202.78 92.3327 203.616 93.7615 204.683C93.7138 205.157 93.4488 205.4 93.0128 205.853C91.4055 205.395 89.9692 204.727 88.2097 203.943Z" fill="#2B0650"/>
<path d="M87.0034 213.407C86.8623 212.315 86.8914 211.541 86.9032 210.379C87.7045 210.092 88.5939 210.022 89.3269 210.328C90.837 210.957 92.3664 211.659 93.6201 212.664C93.8216 212.826 92.4355 215.702 92.1296 215.639C90.4188 215.287 88.8144 214.418 87.0034 213.407Z" fill="#08020E"/>
<path d="M18.8066 143.493C18.99 143.031 19.1614 143.034 19.5898 143.041C19.9587 147.741 20.0707 152.436 20.2469 157.519C20.3112 157.905 20.2828 158.245 20.1393 158.526C19.9958 158.807 19.6556 159.019 19.6556 159.019C19.6556 159.019 19.2594 159.023 19.0613 159.017C18.7629 158.56 18.6626 158.11 18.4712 157.325C18.5182 152.646 18.6565 148.301 18.8066 143.493Z" fill="#1B062F"/>
<path d="M19.7395 159.278C19.6556 159.019 19.9959 158.807 20.1597 158.695C20.3055 158.917 20.2876 159.252 20.1555 159.81C19.9687 159.869 19.8961 159.703 19.7395 159.278Z" fill="#3A086D"/>
<path d="M64.9733 207.27C65.7235 206.949 66.4385 206.987 67.4955 207.165C67.8401 208.041 67.8425 208.777 67.8272 209.883C66.9514 210.041 66.0934 209.831 65.0519 209.343C64.8916 208.587 64.9148 208.108 64.9733 207.27Z" fill="#0D0416"/>
<path d="M60.3303 214.271C60.3406 214.66 60.2329 214.935 60.1251 215.21C59.9207 215.028 59.7164 214.846 59.512 214.663C59.7454 214.495 59.9788 214.326 60.3303 214.271Z" fill="#7425C3"/>
<path d="M157.176 183.89C154.458 185.328 152.007 186.598 149.225 187.97C145.541 183.976 148.199 181.708 151.659 179.359C153.604 178.419 155.352 177.743 157.432 176.973C158.654 178.167 159.544 179.457 160.718 180.944C159.816 182.002 158.63 182.862 157.176 183.89Z" fill="#41097A"/>
<path d="M59.2552 195.974C58.588 195.461 58.2862 194.982 57.819 194.267C57.8632 194.027 58.0727 194.021 58.5966 194.002C59.4099 194.219 59.9089 194.451 60.8449 194.949C61.5233 195.446 61.7323 195.702 61.9089 195.985C61.9089 195.985 61.8596 196.044 61.8334 196.075C61.0784 196.073 60.3495 196.04 59.2552 195.974Z" fill="#1F0837"/>
<path d="M46.3966 55.7848C45.2947 56.1982 44.4061 56.4824 43.1975 56.891C41.9844 55.8184 41.0913 54.6214 40.0193 53.1412C41.6279 51.631 43.4154 50.4039 45.5232 49.082C47.3478 49.8869 48.8523 50.7864 50.4245 52.0716C49.8915 53.0001 49.2907 53.543 48.6899 54.086C47.9966 54.6091 47.3033 55.1323 46.3966 55.7848Z" fill="#3F0976"/>
<path d="M48.7227 54.3391C49.2907 53.5427 49.8915 52.9998 50.7024 52.2422C52.3658 53.7231 52.3658 53.7231 49.1237 55.0171C48.7941 54.9308 48.7748 54.7616 48.7227 54.3391Z" fill="#350763"/>
<path d="M56.5634 50.9598C55.8592 51.026 55.3321 50.9519 54.8049 50.8777C55.0777 50.5259 55.3505 50.1741 55.6233 49.8223C55.9957 50.1546 56.3681 50.487 56.5634 50.9598Z" fill="#350763"/>
<path d="M62.2534 196.066C61.7323 195.703 61.5233 195.446 61.1042 195.041C61.2415 193.156 61.5566 191.447 62.2274 189.443C65.3475 190.761 68.112 192.373 70.8765 193.986C70.8679 195.742 70.8593 197.498 70.8347 199.697C68.0786 198.808 65.3383 197.477 62.2534 196.066Z" fill="#3F0976"/>
<path d="M71.2133 194.008C68.112 192.373 65.3475 190.761 62.2384 189.063C62.3683 188.398 62.8427 187.819 63.5909 187.141C67.3833 189.205 70.9021 191.369 74.3353 193.782C74.0241 194.047 73.7985 194.062 73.573 194.077C72.8987 194.061 72.2244 194.045 71.2133 194.008Z" fill="#330760"/>
<path d="M73.8336 194.27C73.7985 194.062 74.0241 194.047 74.5882 194.007C74.9268 193.982 75.4092 194.001 75.6506 194.002C75.9031 194.174 75.9142 194.344 75.9139 194.772C75.2997 194.84 74.6969 194.651 73.8336 194.27Z" fill="#2B0650"/>
</svg>
