<svg width="500" height="500" viewBox="0 0 500 500" fill="none" xmlns="http://www.w3.org/2000/svg">
<path d="M446.832 184.995C446.889 199.819 446.977 214.643 446.958 229.467C446.956 231.025 446.326 232.583 445.53 234.462C444.714 233.752 444.078 232.73 444.048 231.69C443.929 227.528 444 223.36 443.998 219.195C443.995 211.45 444.159 203.698 443.892 195.962C443.803 193.369 442.612 190.813 441.925 188.24C441.449 188.366 440.973 188.492 440.496 188.619C439.332 201.578 437.834 214.518 437.087 227.502C436.143 243.902 427.884 255.836 414.497 263.993C404.955 269.807 394.528 274.27 384.23 278.719C368.615 285.466 352.756 291.645 337.046 298.175C335.846 298.674 335.005 300.036 333.619 301.042C331.497 301.395 329.754 301.703 327.63 302.014C325.499 303.007 323.747 303.999 321.663 304.994C320.888 305 320.444 305.003 319.771 304.738C317.694 305.313 315.846 306.155 313.624 307C312.501 307.007 311.752 307.013 310.774 306.761C307.361 307.667 304.179 308.831 300.623 309.997C299.499 310.002 298.75 310.005 297.757 309.733C294.723 308.704 292.171 308.564 290.546 311.981C287.735 311.991 285.367 311.996 282.8 311.749C281.73 311.989 280.859 312.482 279.532 312.979C266.264 311.659 253.172 311.579 240.695 308.772C206.925 301.174 172.802 294.527 140.962 279.675C140.277 278.905 139.638 278.454 138.83 277.76C138.111 277.342 137.559 277.167 136.97 276.645C133.674 270.981 130.507 265.606 127.126 260.369C124.956 257.009 122.284 253.966 120.198 250.56C119.074 248.724 118.125 246.431 118.096 244.331C117.91 230.889 118.002 217.443 118.372 203.993C120.549 202.771 122.356 201.553 124.435 200.153C127.842 204.577 132.249 204.45 137.322 203.258C141.622 202.247 146.186 202.325 150.64 202.01C160.872 201.287 171.129 200.848 181.336 199.877C200.24 198.078 219.121 196.02 238.003 193.994C253.765 192.303 269.519 190.533 285.265 188.697C286.517 188.551 287.67 187.599 288.884 187.057C290.397 186.381 291.878 185.347 293.457 185.151C302.797 183.992 312.147 182.859 321.522 182.044C335.03 180.868 348.563 180.002 362.081 178.947C378.561 177.661 395.039 176.359 411.51 174.973C417.1 174.503 422.657 173.654 428.247 173.169C433.345 172.727 438.548 171.93 441.565 177.934C442.863 180.518 445.049 182.655 446.832 184.995Z" fill="#D4D3FF"/>
<path d="M437.111 370.04C436.336 371.611 435.561 373.183 434.181 374.693C433.576 373.243 433.576 371.854 433.576 370.492C428.878 370.039 428.043 370.4 424.775 375.474C419.078 384.316 412.078 391.031 400.923 392.24C391.909 393.217 382.951 394.717 373.969 395.995C369.731 396.598 365.513 397.546 361.257 397.766C353.774 398.153 346.26 397.922 338.775 398.286C331.599 398.635 324.454 399.638 317.278 399.949C305.252 400.47 293.212 400.657 281.179 401.026C280.034 401.061 278.901 401.536 277.756 401.561C266.851 401.793 255.943 401.948 245.038 402.178C239.153 402.302 233.266 402.445 227.388 402.735C220.937 403.052 214.499 403.736 208.047 403.909C202.68 404.053 197.291 403.438 191.926 403.609C183.815 403.868 175.718 404.54 167.613 404.992C162.074 405.3 156.487 406.072 151.001 405.639C145.9 405.236 140.159 404.704 136.014 402.121C127.144 396.592 124.241 386.739 122.167 377.149C119.937 366.837 118.975 356.257 116.963 345.891C112.803 324.449 112.876 302.716 112.072 281.042C111.988 278.778 112.895 276.477 113.343 274.193C113.819 274.178 114.296 274.164 114.772 274.15C115.505 275.557 116.697 276.903 116.891 278.381C117.751 284.915 118.592 291.472 118.935 298.046C119.394 306.859 121.676 310.126 129.952 312.501C131.225 312.867 132.442 313.424 133.697 313.861C148.255 318.924 162.739 324.219 177.402 328.96C187.459 332.212 197.709 334.924 207.979 337.441C215.65 339.322 223.44 341.297 231.27 341.812C242.514 342.551 253.852 342.27 265.133 341.912C273.721 341.639 282.427 341.307 290.826 339.685C304.419 337.06 317.962 333.895 331.243 329.995C360.999 321.259 389.875 310.275 414.643 290.97C420.77 286.194 429.161 282.766 430.301 273.365C430.718 269.924 430.77 266.438 431.109 262.708C431.811 261.944 432.393 261.445 432.985 261.417C432.664 269.793 432.116 277.695 432.047 285.602C431.9 302.432 431.64 319.274 432.134 336.091C432.441 346.555 433.997 356.986 435.14 367.416C435.243 368.352 436.429 369.168 437.111 370.04Z" fill="#EFEFFF"/>
<path d="M430.989 262.973C430.77 266.439 430.718 269.924 430.301 273.365C429.161 282.766 420.77 286.195 414.643 290.97C389.875 310.275 360.999 321.259 331.244 329.995C317.962 333.895 304.419 337.061 290.826 339.686C282.427 341.308 273.721 341.639 265.133 341.912C253.852 342.27 242.514 342.551 231.27 341.812C223.44 341.297 215.65 339.322 207.979 337.442C197.709 334.924 187.459 332.212 177.402 328.96C162.739 324.219 148.255 318.925 133.697 313.861C132.442 313.425 131.225 312.867 129.952 312.502C121.676 310.126 119.394 306.859 118.935 298.047C118.592 291.472 117.751 284.915 116.891 278.382C116.697 276.904 115.505 275.557 114.772 274.15C114.296 274.164 113.819 274.179 113.343 274.193C112.895 276.477 111.988 278.778 112.072 281.042C112.876 302.716 112.803 324.449 116.963 345.891C118.975 356.258 119.937 366.838 122.167 377.149C124.241 386.74 127.144 396.592 136.014 402.121C140.159 404.705 145.9 405.236 151.001 405.639C156.487 406.072 162.074 405.3 167.613 404.992C175.718 404.541 183.815 403.868 191.926 403.609C197.291 403.439 202.68 404.053 208.047 403.909C214.499 403.736 220.937 403.053 227.388 402.735C233.266 402.446 239.153 402.302 245.038 402.178C255.943 401.948 266.851 401.794 277.756 401.561C278.901 401.537 280.034 401.062 281.179 401.027C293.212 400.657 305.252 400.47 317.278 399.949C324.454 399.638 331.599 398.635 338.775 398.286C346.26 397.922 353.774 398.154 361.257 397.766C365.513 397.546 369.731 396.598 373.969 395.995C382.951 394.718 391.909 393.217 400.923 392.24C412.078 391.032 419.078 384.316 424.775 375.474C428.043 370.401 428.878 370.039 433.576 370.492C433.576 371.854 433.576 373.243 433.844 374.842C434.014 376.474 433.916 377.896 433.42 379.64C427.66 377.899 424.767 381.22 421.766 385.127C412.408 396.578 400.477 401.643 386.166 402.108C378.092 402.371 370.041 403.363 361.583 404.023C360.127 404.022 359.068 404.026 357.864 403.8C357.146 403.715 356.573 403.859 355.546 404.003C352.062 404.003 349.033 404.003 345.585 404.002C343.111 404.334 341.056 404.667 338.546 405C335.063 405.002 332.033 405.003 328.612 405.003C326.48 405.335 324.74 405.668 322.571 406.003C312.762 406.669 303.381 407.335 293.768 407.733C292.024 407.645 290.512 407.824 288.586 408.003C284.783 408.004 281.394 408.005 277.639 408.004C276.181 408.336 275.09 408.669 273.565 409.003C261.279 409.994 249.441 411.207 237.573 411.921C222.53 412.826 207.459 413.236 192.409 414.04C184.826 414.444 177.275 415.49 169.69 415.808C160.791 416.181 151.639 417.206 143.658 411.802C138.636 408.401 133.877 404.614 128.964 400.651C127.414 398.161 125.917 396.007 124.383 393.879C116.581 383.059 109.469 372.041 111.914 357.641C112.216 355.863 111.333 353.885 110.999 351.667C110.999 350.89 110.999 350.445 110.999 349.533C110.992 338.094 111.696 327.105 110.021 316.179C109.554 313.138 109.333 310.061 108.999 306.583C108.999 304.778 108.999 303.39 108.999 301.533C109.001 294.376 109.001 287.688 109.293 280.706C109.734 268.187 110.21 255.956 109.952 243.74C109.581 226.154 108.677 208.579 108.375 191C109.501 191 110.252 191 111.171 191.37C111.893 195.964 112.808 200.176 112.936 204.412C113.418 220.265 113.644 236.126 113.97 252.42C115 257.24 116.026 261.625 117.035 266.249C117.019 266.488 117.02 266.968 117.013 267.405C118.671 273.561 120.335 279.28 122.007 285.395C122.722 289.16 122.983 292.715 124.27 295.847C125.441 298.699 127.189 302.572 129.608 303.453C148.447 310.316 167.494 316.61 186.508 322.988C204.922 329.164 223.773 333.726 243.158 334.853C265.759 336.166 288.369 334.664 310.153 328.244C330.144 322.353 349.798 315.258 369.415 308.18C389.063 301.092 406.979 290.767 423.062 277.351C426.937 274.119 429.918 270.52 429.126 264.746C429.828 263.978 430.408 263.476 430.989 262.973Z" fill="#8E32E9"/>
<path d="M446.908 184.554C445.049 182.655 442.863 180.518 441.565 177.934C438.548 171.93 433.345 172.727 428.246 173.169C422.657 173.654 417.1 174.503 411.51 174.973C395.039 176.359 378.561 177.661 362.081 178.947C348.563 180.002 335.03 180.868 321.522 182.044C312.147 182.86 302.797 183.992 293.457 185.151C291.878 185.347 290.397 186.381 288.884 187.057C287.67 187.599 286.517 188.551 285.265 188.697C269.519 190.533 253.765 192.303 238.003 193.995C219.121 196.02 200.24 198.078 181.336 199.877C171.129 200.848 160.871 201.287 150.64 202.01C146.186 202.325 141.622 202.247 137.322 203.258C132.249 204.45 127.842 204.577 124.435 200.153C122.356 201.553 120.549 202.771 118.37 203.548C117.34 198.407 116.681 193.706 116.421 188.995C117.879 187.668 119.31 186.498 119.901 184.997C120.632 183.142 120.665 181.012 121.264 179.214C122.019 180.952 122.511 182.475 123.044 184.376C125.037 191.621 130.648 189 134.741 188.726C148.583 187.799 162.383 186.261 176.204 185.01C184.769 184.235 193.346 183.599 201.91 182.828C215.732 181.583 229.54 180.181 243.369 179.034C253.593 178.185 263.85 177.752 274.076 176.929C293.517 175.365 312.938 173.548 332.383 172.038C347.394 170.873 362.421 169.894 377.454 169.053C397.631 167.923 417.821 167.005 438.277 166.228C439.699 168.724 440.851 170.989 442.002 173.253C442.631 173.003 443.26 172.752 443.888 172.501C443.749 170.64 443.475 168.776 443.51 166.918C443.541 165.261 443.913 163.611 444.135 161.957C445.084 169.342 446.034 176.727 446.908 184.554Z" fill="#8434CC"/>
<path d="M438.006 165.996C417.821 167.005 397.631 167.922 377.454 169.052C362.421 169.894 347.394 170.873 332.383 172.038C312.938 173.548 293.517 175.365 274.076 176.929C263.851 177.752 253.593 178.185 243.369 179.033C229.54 180.181 215.732 181.583 201.91 182.827C193.346 183.598 184.769 184.235 176.204 185.01C162.383 186.26 148.583 187.799 134.741 188.726C130.648 189 125.037 191.621 123.504 184.376C134.993 183.317 146.066 182.7 157.13 181.932C165.707 181.337 174.279 180.636 182.84 179.834C199.45 178.278 216.045 176.548 232.658 175.028C241.882 174.183 251.139 173.716 260.366 172.902C274.188 171.681 288.004 170.383 301.804 168.939C305.104 168.594 308.331 167.544 311.591 166.818C311.467 166.088 311.343 165.357 311.219 164.627C303.846 165.082 296.479 165.672 289.1 165.966C270.267 166.714 251.425 167.258 232.593 168.024C219.52 168.557 206.46 169.433 193.387 169.958C174.163 170.731 154.928 171.227 135.707 172.066C130.453 172.296 125.234 173.333 119.739 173.792C119.318 172.723 119.158 171.861 119.38 170.833C133.627 169.778 147.485 168.779 161.357 168.031C176.086 167.236 190.83 166.737 205.562 166.004C224.587 165.057 243.609 164.039 262.63 162.993C279.99 162.04 297.347 161.038 314.703 160.005C336.623 158.699 358.538 157.285 380.461 156.024C394.024 155.244 407.654 155.176 421.139 153.72C426.026 153.193 433.994 156.218 435.041 146.874C435.984 147.708 436.927 148.542 437.504 149.768C436.746 152.557 435.908 154.986 436.076 157.343C436.283 160.258 437.325 163.114 438.006 165.996Z" fill="#671DB0"/>
<path d="M62.0129 139.17C72.5772 138.781 83.1491 138.534 93.704 137.97C110.112 137.093 126.51 136.021 142.91 134.994C152.91 134.368 162.911 133.741 172.898 132.942C174.732 132.795 176.5 131.82 178.991 131.243C180.079 134.5 180.475 137.741 180.433 140.988C174.88 141.329 169.746 141.495 164.653 142.039C156.947 142.863 149.198 143.591 141.612 145.093C138.335 145.741 135.42 148.219 132.34 149.865C135.584 151.863 138.599 154.8 142.121 155.659C149.141 157.372 156.416 158.223 163.636 158.842C166.358 159.075 169.219 157.676 172.307 156.999C173.071 156.682 173.545 156.387 174.344 156.073C175.103 156.077 175.537 156.099 175.992 156.512C176.924 157.607 177.819 158.896 178.749 158.922C186.785 159.146 194.829 159.092 202.869 159.24C204.917 159.278 206.957 159.739 208.739 160.288C204.716 161.047 200.96 161.891 197.195 161.934C182.921 162.098 168.638 162.251 154.37 161.927C142.023 161.647 129.692 160.691 117.351 160.089C114.701 159.96 112.038 160.07 109.381 160.07C116.766 168.072 118.528 176.468 115.714 185.749C114.954 183.43 114.105 181.367 114.062 179.288C113.881 170.472 110.016 164.466 101.816 160.802C95.5164 157.987 89.6273 154.261 83.5074 151.032C77.6994 147.966 71.829 145.02 65.6056 142.016C64.1544 141.065 63.0837 140.118 62.0129 139.17Z" fill="#3C0C7C"/>
<path d="M53.2061 238.995C53.1552 231.64 53.1043 224.284 53.3337 216.217C53.7389 214.004 53.8639 212.503 53.9938 210.533C54.0105 197.376 54.0224 184.689 54.4202 172.095C55.2041 173.691 55.8375 175.175 55.9583 176.7C56.4285 182.64 56.511 188.616 57.1497 194.534C58.637 208.315 60.3388 222.074 61.9992 235.836C63.6397 249.434 65.0631 263.065 67.0793 276.608C69.4359 292.436 72.1237 308.224 75.0664 323.955C76.9789 334.179 80.0692 344.191 81.7971 354.439C84.2703 369.108 94.5435 376.931 106.333 384C107.11 384.001 107.553 384.002 107.998 384.377C108.001 385.501 108.003 386.25 107.786 387.109C107.293 387.418 107.104 387.679 106.625 387.996C105.154 387.65 103.811 387.604 102.997 386.924C93.2326 378.761 83.448 370.615 73.9245 362.176C72.0716 360.534 70.8097 357.789 70.1526 355.32C68.5888 349.444 67.4781 343.443 66.3191 337.465C65.1275 331.321 63.9966 325.16 63.0172 318.979C61.5481 309.706 61.7275 299.831 58.4164 291.293C55.3691 283.436 55.2721 275.909 54.9238 268.037C54.8631 266.667 53.7999 265.341 53.1998 263.995C53.1525 263.551 53.1052 263.106 53.4927 262.235C55.4819 259.348 56.1294 256.982 53.2059 254.995C53.1502 253.28 53.0946 251.565 53.3955 249.381C54.0368 248.591 54.3218 248.27 54.6067 247.949C54.1303 247.632 53.6539 247.314 53.1775 246.996C53.1346 245.929 53.0917 244.861 53.4492 243.326C53.6351 241.57 53.4206 240.283 53.2061 238.995Z" fill="#3C0C7C"/>
<path d="M223.004 80.1666C239.031 79.116 255.058 78.0653 271.498 77.4414C271.601 79.2357 271.29 80.6034 270.532 81.9776C262.39 82.6563 254.696 83.3284 246.854 83.7763C246.137 83.7065 245.568 83.8609 244.669 84.0152C243.899 84.0165 243.459 84.018 242.569 84.0117C238.177 84.3438 234.211 84.5203 230.31 85.1233C229.143 85.3036 227.256 86.7189 227.293 87.4929C227.359 88.8826 228.333 90.6453 229.486 91.4454C230.548 92.1817 232.349 92.0074 233.819 91.9762C248.222 91.6704 262.624 91.3105 277.355 90.9696C278.122 90.9765 278.56 90.9799 279.167 91.2315C279.898 91.6448 280.46 91.81 281.365 92.0129C282.806 92.3662 283.904 92.6818 285.159 93.304C286.547 94.0706 287.778 94.5305 289.255 94.9953C289.5 95.0003 289.991 95.0114 290.043 95.3458C291.733 96.7844 293.37 97.8888 295.303 99.0187C296.062 99.3663 296.526 99.6883 297.027 100.355C297.174 101.009 297.215 101.369 297.403 101.621C302.554 108.556 311.408 112.939 312.1 122.969C312.126 123.353 312.729 123.698 312.869 124.419C312.616 127.518 312.537 130.258 312.5 132.999C312.442 137.391 312.412 141.782 312.017 145.955C310.442 138.971 308.886 132.243 308.111 125.426C307.543 120.427 305.867 116.423 301.863 113.38C302.268 117.683 303.609 121.774 303.867 125.932C304.131 130.183 303.476 134.519 302.917 138.778C302.733 140.179 301.596 141.456 300.894 142.789C299.881 141.564 298.216 140.457 297.968 139.093C296.82 132.781 296.658 126.243 295.052 120.069C291.436 106.161 279.75 99.5559 266.715 100.842C257.164 101.785 247.569 102.28 237.995 103.004C225.824 103.925 217.346 110.206 211.638 121.061C206.777 125.933 208.309 131.933 207.977 137.584C207.706 142.206 207.845 146.975 204.226 151.024C203.007 149.189 202.243 147.336 202.041 145.424C199.819 124.376 206.658 107.694 227.208 97.1787C218.754 92.3 222.242 87.7705 226.248 83.7206C224.873 82.2143 223.938 81.1905 223.004 80.1666Z" fill="#918FFF"/>
<path d="M312.37 146.174C312.412 141.783 312.442 137.391 312.5 133C312.537 130.259 312.616 127.518 313.093 124.291C313.697 123.519 313.883 123.234 314.069 122.949C316.683 122.971 319.303 123.112 321.91 122.994C335.744 122.366 349.572 121.588 363.409 121.041C369.387 120.804 375.391 120.807 381.364 121.099C383.511 121.204 385.6 122.477 387.914 123.905C392.076 127.062 396.04 129.53 399.641 132.157C390.375 133.871 381.462 135.368 372.575 137.007C367.9 137.87 363.274 139 358.62 139.979C344.104 143.031 329.533 145.843 315.096 149.23C309.899 150.449 305.023 153.036 299.6 154.999C298.135 155.001 297.068 155.002 295.558 155.001C292.742 155 290.371 155 287.827 154.774C287.103 155.032 286.551 155.515 285.625 155.999C284.501 156 283.751 156.001 282.573 156C280.43 155.999 278.716 155.999 277.002 155.665C277.001 154.887 277 154.442 277.253 153.713C280.393 152.952 283.312 152.612 286.153 151.94C287.512 151.619 288.723 150.671 290.444 149.976C294.282 149.663 297.678 149.381 301.392 149.121C302.137 149.112 302.562 149.079 303.362 149.056C304.485 149.013 305.232 148.962 306.36 148.94C308.616 148.038 310.493 147.106 312.37 146.174Z" fill="#3C0C7C"/>
<path d="M283.001 156.001C283.751 156.001 284.501 156 285.958 156C287.111 156.001 287.555 156.002 288.234 156.269C290.98 156.025 293.491 155.513 296.003 155.002C297.069 155.002 298.135 155.001 299.868 155.283C301.672 155.658 302.823 155.913 303.943 155.813C310.194 155.256 316.426 154.442 322.685 154.036C335.084 153.234 347.498 152.676 359.901 151.954C376.265 151.001 392.626 149.988 408.987 148.999C414.608 148.66 420.23 148.345 425.845 147.936C426.547 147.885 427.211 147.328 427.893 147.006C428.046 146.529 428.198 146.051 428.351 145.574C418.902 141.049 409.453 136.524 400.004 131.999C396.04 129.53 392.076 127.062 388.076 124.24C398.218 128.213 408.423 132.481 418.557 136.908C420.934 137.947 423.075 139.527 425.808 141.204C426.528 141.773 426.807 141.908 427.129 141.955C427.129 141.955 427.586 142.002 427.938 142.273C428.528 142.771 428.809 142.907 429.133 142.953C429.133 142.953 429.58 143 429.829 143.361C430.93 145.42 431.78 147.116 432.904 149.358C431.041 149.991 429.591 150.799 428.077 150.947C420.177 151.719 412.272 152.519 404.348 152.948C383.66 154.066 362.96 154.981 342.266 156.01C336.476 156.298 330.687 156.641 324.904 157.057C306.967 158.345 289.04 159.777 271.096 160.966C258.532 161.798 245.952 162.423 233.372 162.962C215.507 163.727 197.638 164.454 179.764 164.964C162.321 165.463 144.868 165.631 127.422 166.044C124.794 166.106 122.129 166.504 119.572 167.124C116.708 167.818 116.289 169.275 118.997 170.999C119.158 171.861 119.318 172.723 119.778 174.157C120.385 176.153 120.693 177.577 121 179C120.665 181.011 120.632 183.141 119.902 184.997C119.31 186.498 117.879 187.668 116.414 188.619C116.003 187.502 116 186.751 115.996 185.999C118.528 176.468 116.767 168.072 109.382 160.07C112.038 160.07 114.701 159.96 117.351 160.089C129.692 160.691 142.023 161.647 154.37 161.928C168.638 162.252 182.921 162.098 197.195 161.935C200.96 161.891 204.716 161.047 209.134 160.279C211.859 159.66 213.928 159.333 216.088 159.396C219.912 161.262 223.641 162.686 227.376 159.003C228.5 159.003 229.25 159.002 230.07 159.369C230.632 160.098 231.144 160.8 231.614 160.774C247.455 159.892 263.294 158.983 279.124 157.923C280.453 157.834 281.71 156.667 283.001 156.001Z" fill="#3C0C7C"/>
<path d="M53.1135 264.457C53.7999 265.341 54.8632 266.667 54.9238 268.037C55.2721 275.909 55.3691 283.435 58.4165 291.293C61.7275 299.83 61.5481 309.706 63.0172 318.978C63.9966 325.16 65.1275 331.32 66.3191 337.465C67.4782 343.442 68.5889 349.444 70.1526 355.32C70.8097 357.789 72.0716 360.534 73.9246 362.176C83.4481 370.615 93.2327 378.761 102.997 386.924C103.811 387.604 105.154 387.65 106.746 388.261C107.828 389.021 108.415 389.51 109.025 390.295C109.366 391.056 109.685 391.521 110.03 392.309C110.707 393.42 111.36 394.208 112.131 395.263C112.834 396.016 113.418 396.503 114.126 397.287C114.498 398.39 114.746 399.197 114.648 399.967C110.177 396.947 105.982 394.052 101.938 390.96C89.6411 381.561 77.1997 372.333 65.2428 362.516C60.6324 358.731 57.1742 353.542 53.191 348.993C53.1421 345.964 53.0931 342.934 53.3897 339.409C54.0262 338.599 54.3173 338.283 54.6084 337.967C54.1406 337.643 53.6727 337.318 53.2048 336.993C53.1542 332.962 53.1036 328.931 53.2642 324.348C53.3797 323.533 53.2841 323.272 53.1885 323.01C53.1398 320.299 53.0911 317.588 53.2562 314.337C53.3772 313.536 53.2845 313.273 53.1918 313.011C53.1369 296.98 53.082 280.95 53.1135 264.457Z" fill="#3C0C7C"/>
<path d="M431.109 262.708C430.408 263.475 429.828 263.977 428.887 264.746C428.527 265.013 428.05 265.009 427.676 265.011C426.659 265.147 425.954 265.157 425.381 265.436C417.678 269.2 410.16 273.396 402.27 276.71C385.82 283.62 369.147 289.998 352.618 296.723C330.625 305.671 308.17 313.061 284.358 314.874C266.917 316.202 249.484 314.377 232.516 310.483C213.678 306.159 195.181 300.362 176.489 295.381C171.078 293.939 165.508 293.096 159.963 291.66C159.274 290.898 158.631 290.453 157.556 290.008C154.086 289.665 151.048 289.323 147.965 288.624C147.134 287.518 146.477 286.49 145.545 286.063C136.012 281.689 127.163 276.462 120.777 267.786C120.057 266.809 118.318 266.583 117.051 266.009C116.026 261.625 115 257.24 114.318 252.476C116.108 254.232 117.304 256.603 119.046 258.461C124.929 264.736 131.006 270.83 137.008 276.992C137.559 277.167 138.111 277.342 138.873 278.079C139.725 279.093 140.366 279.543 141.006 279.994C172.802 294.526 206.925 301.174 240.695 308.771C253.173 311.578 266.264 311.659 279.871 312.984C281.444 312.658 282.222 312.329 283 312.001C285.367 311.996 287.735 311.99 290.924 311.945C293.83 311.272 295.916 310.639 298.001 310.007C298.75 310.004 299.499 310.001 301.026 309.998C304.871 309.005 307.937 308.011 311.004 307.018C311.752 307.013 312.501 307.007 313.989 306.961C316.486 306.283 318.243 305.644 320.001 305.006C320.444 305.003 320.888 305 322.017 304.96C324.473 303.953 326.241 302.982 328.01 302.011C329.754 301.703 331.497 301.395 333.994 301.001C353.21 293.59 371.67 286.259 390.137 278.945C398.134 275.778 406.836 273.737 413.977 269.223C422.786 263.653 430.303 256.04 438.81 248.949C438.802 248.946 439.96 249.494 441.117 250.042C441.063 250.797 441.008 251.552 440.727 252.68C440.5 253.053 440.173 253.054 440.173 253.054C439.909 252.764 439.645 252.474 439.381 252.185C439.25 252.573 439.12 252.962 438.58 253.712C436.439 256.364 434.707 258.655 432.975 260.946C432.393 261.445 431.811 261.944 431.109 262.708Z" fill="#3A0A6B"/>
<path d="M222.584 80.0928C223.938 81.191 224.873 82.2149 226.248 83.7211C222.242 87.771 218.754 92.3005 227.208 97.1792C206.658 107.694 199.819 124.376 202.041 145.425C202.243 147.337 203.007 149.19 204.226 151.025C207.844 146.975 207.706 142.206 207.977 137.585C208.309 131.934 206.777 125.933 211.593 121.451C211.271 128.141 210.787 134.527 209.941 140.864C209.445 144.578 208.596 148.287 207.437 151.845C207.027 153.102 205.35 154.266 203.997 154.726C203.509 154.892 202.169 152.945 201.422 151.826C200.89 151.03 200.699 150.005 200.357 149.082C199.648 149.406 198.94 149.729 198.232 150.052C197.825 152.317 197.418 154.582 196.597 156.887C194.117 156.668 192.052 156.409 189.983 155.738C189.657 152.883 189.333 150.44 189.361 148.064C190.074 148.446 190.502 148.71 190.786 149.084C191.673 150.253 192.506 151.465 193.36 152.66C194.264 151.295 195.654 150.035 195.972 148.545C196.621 145.51 196.612 142.341 197.017 139.246C197.889 132.582 198.836 125.929 199.783 119.275C200.108 116.99 200.523 114.717 200.897 112.438C200.463 112.211 200.028 111.984 199.594 111.758C197.061 113.838 194.529 115.918 192.033 117.644C194.776 113.353 197.225 109.204 200.251 105.531C204.335 100.576 208.984 96.088 213.123 91.1746C214.288 89.7912 214.518 87.6199 215.177 85.81C214.774 85.55 214.371 85.2901 213.967 85.0301C210.899 86.6181 207.885 88.332 204.731 89.7247C203.653 90.2003 202.22 89.8697 200.95 89.9074C207.182 84.8096 213.87 80.6916 222.584 80.0928Z" fill="#8C8AFF"/>
<path d="M119.38 170.833C116.289 169.275 116.708 167.818 119.572 167.124C122.129 166.504 124.794 166.106 127.422 166.044C144.868 165.631 162.32 165.463 179.764 164.964C197.638 164.454 215.506 163.727 233.372 162.962C245.952 162.423 258.532 161.798 271.096 160.966C289.039 159.777 306.967 158.345 324.904 157.057C330.686 156.641 336.475 156.298 342.266 156.01C362.96 154.981 383.659 154.066 404.348 152.948C412.271 152.519 420.177 151.719 428.077 150.947C429.591 150.799 431.04 149.991 432.903 149.358C431.78 147.116 430.929 145.42 430.039 143.439C431.586 144.181 433.173 145.206 434.9 146.552C433.994 156.218 426.026 153.193 421.139 153.72C407.654 155.176 394.024 155.244 380.461 156.024C358.537 157.285 336.623 158.699 314.703 160.005C297.347 161.038 279.99 162.039 262.63 162.993C243.609 164.038 224.587 165.057 205.562 166.004C190.83 166.736 176.086 167.236 161.357 168.031C147.485 168.779 133.627 169.778 119.38 170.833Z" fill="#4C0C94"/>
<path d="M441.443 249.882C439.96 249.494 438.802 248.946 438.81 248.949C430.303 256.04 422.786 263.654 413.977 269.223C406.836 273.737 398.134 275.778 390.137 278.945C371.669 286.259 353.21 293.59 334.372 300.955C335.005 300.035 335.846 298.673 337.046 298.175C352.756 291.645 368.615 285.465 384.23 278.719C394.528 274.27 404.955 269.807 414.497 263.993C427.884 255.836 436.143 243.901 437.087 227.501C437.834 214.518 439.332 201.578 440.496 188.618C440.973 188.492 441.449 188.366 441.925 188.239C442.612 190.812 443.803 193.368 443.892 195.962C444.159 203.698 443.995 211.449 443.998 219.194C444 223.36 443.929 227.528 444.048 231.69C444.077 232.729 444.714 233.751 445.454 234.889C445.883 235.166 445.93 235.336 445.701 235.912C445.267 236.623 445.109 236.927 444.951 237.232C443.89 241.395 442.829 245.559 441.443 249.882Z" fill="#3C0C7C"/>
<path d="M189.01 147.997C189.333 150.44 189.657 152.883 189.585 155.733C188.131 156.198 187.073 156.255 185.621 156.216C184.149 156.103 183.072 156.087 181.762 156.028C181.53 155.986 181.061 155.942 181.043 155.516C180.966 153.371 180.908 151.651 180.881 149.536C180.887 148.087 180.862 147.032 180.884 145.563C180.911 143.76 180.891 142.371 180.871 140.983C180.475 137.741 180.079 134.5 179.344 131.056C178.825 122.917 182.355 116.305 185.49 109.229C188.972 101.37 194.823 96.0634 200.638 90.0352C202.22 89.8698 203.653 90.2005 204.731 89.7249C207.885 88.3321 210.899 86.6183 213.967 85.0303C214.371 85.2902 214.774 85.5502 215.177 85.8102C214.518 87.6201 214.288 89.7914 213.123 91.1748C208.984 96.0882 204.335 100.576 200.251 105.531C197.225 109.204 194.776 113.353 191.987 118.029C188.199 128.24 189.057 138.163 189.01 147.997Z" fill="#8180FB"/>
<path d="M432.985 261.417C434.707 258.655 436.439 256.365 438.504 254.02C438.651 275.077 438.394 296.188 438.306 317.301C438.257 328.874 438.588 340.448 438.559 352.022C438.544 357.882 438.107 363.741 437.486 369.82C436.429 369.168 435.243 368.352 435.14 367.416C433.997 356.986 432.441 346.555 432.134 336.091C431.64 319.274 431.9 302.432 432.047 285.602C432.116 277.695 432.664 269.793 432.985 261.417Z" fill="#3C0C7C"/>
<path d="M61.6562 139.185C63.0837 140.118 64.1545 141.065 65.6509 142.366C66.8318 143.53 67.449 144.573 68.3635 145.114C76.7373 150.06 85.088 155.055 93.5933 159.769C102.838 164.893 110.071 171.172 108.644 182.995C106.527 182.297 104.763 181.648 102.792 180.722C99.0621 178.959 95.539 177.472 91.8474 175.678C87.1197 172.922 82.5604 170.475 78.2118 167.759C80.4507 166.591 82.3151 165.817 79.3414 163.56C77.6706 162.292 75.8738 160.713 75.0697 158.867C72.511 152.992 68.1167 149.134 62.8642 145.789C60.8665 144.517 59.6082 142.084 58.0129 140.18C59.1084 139.853 60.2039 139.526 61.6562 139.185Z" fill="#4C0C94"/>
<path d="M64.942 385.024C62.2532 381.023 59.5643 377.021 56.7805 372.878C55.7521 373.335 53.3885 368.281 53.8956 364.242C53.9974 363.431 53.9938 362.607 54.3643 361.643C55.7132 363.543 56.2234 366.268 57.8589 367.505C62.2749 370.847 67.196 373.515 71.8702 376.523C86.5923 385.996 101.293 395.503 116.188 405.247C117.248 405.999 118.122 406.502 119.039 407.324C119.721 408.096 120.36 408.549 121.306 409.155C125.742 411.871 129.871 414.434 134.147 417.291C135.199 418.718 136.105 419.851 136.649 420.954C121.72 413.307 107.189 405.622 92.5731 398.099C83.5122 393.436 75.5384 386.447 64.942 385.024Z" fill="#7C2CD4"/>
<path d="M57.6713 140.188C59.6081 142.084 60.8663 144.517 62.864 145.789C68.1165 149.134 72.5109 152.993 75.0696 158.867C75.8737 160.714 77.6704 162.292 79.3413 163.56C82.3149 165.817 80.4506 166.591 77.8525 167.708C73.0138 165.874 68.8152 163.656 64.4545 161.822C60.8405 160.303 57.3143 159.973 55.7304 165.18C54.9985 166.247 54.5152 167.127 53.707 167.868C51.4678 168.103 49.5534 168.476 47.3415 168.907C46.9792 168.587 46.0887 167.799 45.1981 167.011C43.1673 155.324 48.6608 147.042 57.6713 140.188Z" fill="#671DB0"/>
<path d="M64.9714 385.377C75.5384 386.447 83.5122 393.436 92.5731 398.099C107.189 405.622 121.72 413.307 136.98 420.96C138.115 420.999 138.557 421.002 139.239 421.285C143.988 422.374 148.498 423.182 153.387 423.949C156.512 423.937 159.257 423.966 162.023 424.312C162.36 425.406 162.675 426.185 162.99 426.963C153.783 429.595 145.078 427.295 136.537 424.088C129.719 421.527 122.697 419.248 116.339 415.79C108.504 411.529 99.6025 409.671 92.4863 403.539C87.9282 399.612 81.1424 398.394 75.8563 395.146C71.8295 392.672 68.5904 388.916 64.9714 385.377Z" fill="#8E32E9"/>
<path d="M116.002 404.997C101.293 395.503 86.5923 385.996 71.8702 376.523C67.196 373.515 62.275 370.847 57.859 367.505C56.2235 366.268 55.7133 363.543 54.4402 361.261C53.8029 357.302 53.4153 353.578 53.1094 349.424C57.1742 353.543 60.6325 358.731 65.2429 362.516C77.1998 372.333 89.6412 381.562 101.938 390.961C105.982 394.052 110.177 396.947 114.651 399.966C115 400 114.996 400.006 115.036 400.371C115.385 402.155 115.694 403.576 116.002 404.997Z" fill="#671DB0"/>
<path d="M329.979 416.788C327.288 416.848 324.597 416.908 321.203 416.712C318.327 416.903 316.154 417.349 313.981 417.796C311.614 417.85 309.247 417.905 306.166 417.687C302.96 417.874 300.47 418.333 297.98 418.792C295.614 418.848 293.247 418.904 290.166 418.688C286.961 418.874 284.47 419.332 281.98 419.791C279.62 419.849 277.261 419.908 274.206 419.718C271.329 418.656 269.149 417.843 267.291 416.993C268.41 416.636 269.206 416.314 270.371 415.99C272.159 415.664 273.578 415.341 275.285 415.303C278.788 415.466 282.435 417.942 285.418 414.019C286.874 414.018 287.934 414.021 289.289 414.311C293.723 414.397 297.862 414.196 302.428 413.996C304.568 413.995 306.28 413.992 308.454 413.993C312.943 413.661 316.97 413.326 321.397 412.993C322.861 412.993 323.926 412.99 325.453 412.991C329.942 412.66 333.97 412.325 338.372 411.992C339.495 411.993 340.244 411.99 341.45 411.992C345.605 411.662 349.301 411.327 353.373 410.994C354.496 410.994 355.245 410.992 356.455 410.994C360.944 410.665 364.972 410.332 369.416 409.999C371.221 409.999 372.61 409.998 374.461 409.999C377.365 409.999 379.84 410.24 382.238 409.914C383.887 409.689 385.429 408.678 387.39 408.016C388.507 408.015 389.252 408.017 390.233 408.283C391.984 408.35 393.499 408.151 395.339 407.956C396.096 407.958 396.528 407.958 397.264 407.993C398.046 408.359 398.523 408.688 399 409.316C398.993 410.014 398.987 410.412 398.98 410.811C398.546 410.866 398.112 410.92 397.199 410.786C396.14 410.999 395.56 411.401 394.981 411.803C394.536 411.854 394.091 411.905 393.112 411.699C391.712 411.893 390.846 412.345 389.98 412.796C388.596 412.851 387.211 412.907 385.139 412.69C381.961 412.878 379.471 413.338 376.98 413.797C374.607 413.85 372.235 413.903 369.138 413.667C365.936 413.853 363.458 414.326 360.98 414.8C358.614 414.855 356.248 414.909 353.167 414.692C349.962 414.878 347.471 415.337 344.98 415.796C342.614 415.851 340.248 415.906 337.177 415.694C334.309 415.88 332.144 416.334 329.979 416.788Z" fill="#7C2CD4"/>
<path d="M45.1251 167.421C46.0888 167.799 46.9794 168.587 47.3416 168.908C49.5536 168.476 51.468 168.103 53.7014 168.268C54.0251 169.872 54.0297 170.937 54.0344 172.002C54.0225 184.689 54.0107 197.377 53.6302 210.493C48.0349 209.226 45.2494 206.409 45.8326 200.142C46.5552 192.377 46.06 184.492 45.9575 176.661C45.937 175.1 45.3154 173.547 44.9709 171.99C44.998 170.603 45.025 169.217 45.1251 167.421Z" fill="#7C2CD4"/>
<path d="M314.038 122.605C313.883 123.234 313.697 123.519 313.287 123.933C312.729 123.698 312.126 123.353 312.1 122.969C311.408 112.939 302.554 108.556 297.403 101.621C297.215 101.369 297.174 101.009 297.385 100.389C298.914 100.342 300.123 100.606 301.553 100.917C298.853 90.1911 285.493 82.0981 270.979 81.9709C271.29 80.6033 271.601 79.2356 271.96 77.5181C275.361 77.4641 279.104 76.9187 281.976 78.2517C286.36 80.2871 290.516 83.2134 294.09 86.5001C299.141 91.1461 304.782 95.8146 307.938 101.676C311.247 107.822 316.486 114.126 314.038 122.605Z" fill="#9D9BFD"/>
<path d="M361.979 404.027C370.041 403.364 378.092 402.371 386.166 402.109C400.477 401.643 412.408 396.578 422.12 385.12C424.041 384.284 425.628 383.879 426.487 382.86C428.499 380.475 430.105 381.408 431.843 383C430.452 385.593 429.061 388.187 427.205 390.619C422.244 387.677 420.346 392.391 417.791 394.035C409.91 399.104 401.729 402.943 392.347 404.074C391.167 404.216 390.104 405.325 388.644 405.955C387.206 405.621 386.109 405.318 384.55 405.009C380.058 405.341 376.028 405.679 371.624 406.01C370.501 406.003 369.752 406.004 368.579 406.003C366.096 405.343 364.038 404.685 361.979 404.027Z" fill="#3C0C7C"/>
<path d="M163.39 426.957C162.674 426.185 162.36 425.406 162.245 424.048C163.633 422.649 164.82 421.83 166.406 421.008C167.868 421 168.932 420.996 170.413 420.998C172.22 421.004 173.61 421.005 175.279 421.29C178.481 421.641 181.779 423.744 184.388 420.024C186.511 420.347 188.251 420.666 190.434 420.989C193.588 420.333 196.297 419.672 199.338 419.009C200.112 419.001 200.554 418.997 201.412 419C203.218 419.011 204.606 419.015 206.285 419.305C209.728 419.738 212.88 419.885 216.028 420.407C216.008 421.785 215.993 422.787 215.978 423.789C214.593 423.843 213.208 423.897 211.131 423.676C207.928 422.986 205.413 422.289 202.903 422.302C201.924 422.307 200.953 423.912 199.979 424.788C198.593 424.842 197.208 424.897 195.141 424.677C191.013 423.856 187.565 423.307 183.659 422.686C184.324 424.288 184.636 425.038 184.948 425.789C183.221 425.846 181.494 425.903 179.142 425.708C175.668 424.974 172.823 424.221 169.965 424.162C168.988 424.142 167.975 425.863 166.979 426.789C165.916 426.843 164.853 426.897 163.39 426.957Z" fill="#7C2CD4"/>
<path d="M44.6043 172.219C45.3153 173.546 45.937 175.099 45.9574 176.661C46.06 184.492 46.5552 192.376 45.8326 200.141C45.2494 206.408 48.0348 209.226 53.6253 210.961C53.864 212.502 53.739 214.003 53.33 215.747C48.6733 217.146 44.1863 213.698 44.1323 208.607C44.0046 196.556 44.1831 184.501 44.6043 172.219Z" fill="#8E32E9"/>
<path d="M51.9999 340.94C51.9999 344.393 51.9999 347.358 51.9999 350.322C51.7612 350.32 51.5224 350.319 51.2837 350.317C51.2837 310.508 51.2837 270.699 51.2837 230.89C51.5224 230.888 51.7612 230.886 51.9999 230.885C51.9999 267.407 51.9999 303.929 51.9999 340.94Z" fill="#7F7F7F"/>
<path d="M438.277 166.227C437.325 163.114 436.283 160.258 436.076 157.343C435.908 154.985 436.746 152.556 437.481 150.085C439.892 153.739 441.961 157.466 444.082 161.575C443.913 163.61 443.541 165.261 443.51 166.918C443.475 168.776 443.749 170.64 443.888 172.501C443.26 172.752 442.631 173.002 442.002 173.253C440.851 170.988 439.699 168.724 438.277 166.227Z" fill="#8434CC"/>
<path d="M388.987 405.985C390.104 405.324 391.167 404.215 392.347 404.073C401.73 402.942 409.91 399.103 417.791 394.034C420.346 392.391 422.245 387.676 426.882 390.759C426.244 391.984 425.465 392.906 424.046 393.956C421.952 395.746 420.498 397.41 419.045 399.073C419.045 399.073 419.003 399.008 418.668 398.975C413.173 397.116 410.045 401.448 405.644 403.071C402.51 404.739 399.735 406.348 396.96 407.956C396.528 407.957 396.096 407.958 395.261 407.594C393.244 406.828 391.629 406.427 389.758 406.015C389.329 405.998 389.158 405.991 388.987 405.985Z" fill="#3C0C7C"/>
<path d="M232.979 422.796C230.947 422.851 228.915 422.906 226.199 422.708C223.008 421.652 220.5 420.849 217.996 419.783C217.998 419.343 217.999 419.167 218.416 418.994C220.218 418.992 221.605 418.989 223.441 418.99C226.886 418.132 230.677 420.934 233.382 417.011C234.502 417.003 235.249 416.997 236.395 416.998C237.863 417.009 238.93 417.014 240.279 417.301C243.053 417.736 245.546 417.886 248.032 418.413C248.01 419.789 247.995 420.79 247.979 421.792C246.273 421.848 244.567 421.905 242.176 421.703C239.464 421.056 237.432 420.386 235.41 420.415C234.589 420.427 233.789 421.957 232.979 422.796Z" fill="#7C2CD4"/>
<path d="M440.089 253.512C440.173 253.054 440.5 253.053 440.664 253.054C440.827 287.166 440.827 321.277 440.827 355.388C440.553 355.389 440.279 355.39 440.005 355.391C440.005 321.584 440.005 287.777 440.089 253.512Z" fill="#3C0C7C"/>
<path d="M264.979 420.795C262.942 420.849 260.904 420.904 258.165 420.687C255.3 419.623 253.136 418.83 251.217 417.864C251.644 417.133 251.825 416.576 252.435 416.016C254.574 416.014 256.286 416.015 258.273 416.297C260.711 416.731 262.874 416.883 265.031 417.411C265.01 418.79 264.994 419.792 264.979 420.795Z" fill="#7C2CD4"/>
<path d="M447.992 194.051C447.992 190.596 447.992 187.632 447.992 184.667C448.219 184.667 448.447 184.668 448.674 184.668C448.674 198.556 448.674 212.444 448.674 226.332C448.447 226.337 448.219 226.343 447.992 226.348C447.992 215.746 447.992 205.144 447.992 194.051Z" fill="#F9F9FF"/>
<path d="M406.003 403.011C410.045 401.449 413.173 397.116 418.702 398.995C416.298 401.029 413.524 403.012 410.35 404.735C408.633 403.987 407.318 403.499 406.003 403.011Z" fill="#3C0C7C"/>
<path d="M405.644 403.071C407.318 403.499 408.633 403.987 409.992 404.789C410.035 405.103 409.98 405.562 409.514 405.775C405.699 406.997 402.35 408.007 399.001 409.017C398.524 408.688 398.046 408.359 397.264 407.994C399.736 406.349 402.51 404.74 405.644 403.071Z" fill="#3C0C7C"/>
<path d="M41.9922 203.607C41.9922 193.686 41.9922 184.222 41.9922 174.758C42.2096 174.758 42.427 174.758 42.6444 174.758C42.6444 185.319 42.6444 195.881 42.6444 206.443C42.4873 206.449 42.3303 206.456 42.1732 206.463C42.1129 205.663 42.0526 204.864 41.9922 203.607Z" fill="#F9F9FF"/>
<path d="M167.43 426.876C167.975 425.863 168.988 424.142 169.965 424.162C172.823 424.222 175.668 424.975 178.767 425.749C175.305 426.349 171.593 426.655 167.43 426.876Z" fill="#8E32E9"/>
<path d="M431.923 382.681C430.105 381.407 428.499 380.474 426.487 382.859C425.628 383.878 424.041 384.283 422.431 384.975C424.767 381.22 427.66 377.899 433.388 379.971C433.754 380.757 433.754 381.534 433.754 381.508C432.907 381.922 432.455 382.143 431.923 382.681Z" fill="#3C0C7C"/>
<path d="M185.33 425.876C184.636 425.038 184.324 424.287 183.659 422.686C187.565 423.307 191.013 423.855 194.725 424.683C191.897 425.296 188.805 425.63 185.33 425.876Z" fill="#8E32E9"/>
<path d="M200.425 424.874C200.953 423.911 201.924 422.306 202.903 422.301C205.413 422.288 207.928 422.986 210.714 423.681C207.616 424.295 204.244 424.628 200.425 424.874Z" fill="#8E32E9"/>
<path d="M399.001 409.316C402.35 408.007 405.699 406.997 409.431 405.99C406.466 407.657 403.117 409.32 399.374 410.897C398.987 410.412 398.994 410.014 399.001 409.316Z" fill="#7C2CD4"/>
<path d="M217.993 420.047C220.5 420.85 223.007 421.652 225.763 422.735C222.961 423.331 219.91 423.646 216.419 423.875C215.993 422.787 216.008 421.785 216.354 420.404C217.122 420.033 217.557 420.04 217.993 420.047Z" fill="#8E32E9"/>
<path d="M250.971 418.038C253.135 418.83 255.3 419.623 257.727 420.693C254.947 421.301 251.902 421.633 248.419 421.878C247.994 420.791 248.01 419.79 248.398 418.409C249.504 418.032 250.238 418.035 250.971 418.038Z" fill="#8E32E9"/>
<path d="M265.413 420.88C264.994 419.792 265.01 418.79 265.353 417.407C266.11 417.028 266.539 417.029 266.969 417.029C269.149 417.842 271.33 418.656 273.765 419.759C271.296 420.355 268.571 420.66 265.413 420.88Z" fill="#8E32E9"/>
<path d="M233.412 422.882C233.789 421.957 234.589 420.427 235.41 420.415C237.432 420.386 239.464 421.056 241.75 421.73C239.287 422.333 236.566 422.651 233.412 422.882Z" fill="#8E32E9"/>
<path d="M361.4 414.886C363.458 414.326 365.937 413.853 368.693 413.646C366.588 414.265 364.204 414.619 361.4 414.886Z" fill="#3C0C7C"/>
<path d="M282.401 419.876C284.47 419.333 286.961 418.874 289.722 418.695C287.603 419.304 285.213 419.633 282.401 419.876Z" fill="#8E32E9"/>
<path d="M298.401 418.877C300.47 418.332 302.961 417.873 305.722 417.693C303.602 418.303 301.212 418.633 298.401 418.877Z" fill="#8E32E9"/>
<path d="M345.402 415.881C347.471 415.337 349.962 414.878 352.723 414.698C350.604 415.307 348.214 415.637 345.402 415.881Z" fill="#3C0C7C"/>
<path d="M377.402 413.881C379.471 413.337 381.961 412.878 384.723 412.697C382.604 413.306 380.214 413.636 377.402 413.881Z" fill="#3C0C7C"/>
<path d="M53.1197 255.427C56.1295 256.982 55.482 259.348 53.5726 261.907C53.1563 259.956 53.0949 257.907 53.1197 255.427Z" fill="#3C0C7C"/>
<path d="M330.39 416.874C332.144 416.334 334.309 415.88 336.733 415.7C334.929 416.303 332.864 416.632 330.39 416.874Z" fill="#3C0C7C"/>
<path d="M314.393 417.881C316.154 417.349 318.327 416.902 320.755 416.738C318.942 417.336 316.874 417.652 314.393 417.881Z" fill="#3C0C7C"/>
<path d="M419.392 399.031C420.498 397.41 421.952 395.747 423.758 394.063C422.653 395.692 421.196 397.34 419.392 399.031Z" fill="#3C0C7C"/>
<path d="M53.1219 239.391C53.4206 240.282 53.6351 241.57 53.5253 242.931C53.1465 241.932 53.0921 240.859 53.1219 239.391Z" fill="#3C0C7C"/>
<path d="M390.307 412.881C390.846 412.345 391.712 411.893 392.776 411.678C392.193 412.265 391.413 412.616 390.307 412.881Z" fill="#3C0C7C"/>
<path d="M53.1026 247.329C53.6541 247.314 54.1305 247.632 54.6069 247.95C54.3219 248.271 54.037 248.591 53.4753 248.959C53.1415 248.557 53.0845 248.109 53.1026 247.329Z" fill="#3C0C7C"/>
<path d="M53.1235 337.325C53.6727 337.318 54.1405 337.643 54.6084 337.968C54.3173 338.283 54.0262 338.599 53.4584 338.96C53.1352 338.557 53.0887 338.107 53.1235 337.325Z" fill="#3C0C7C"/>
<path d="M395.286 411.88C395.56 411.4 396.14 410.998 396.872 410.829C396.547 411.36 396.069 411.659 395.286 411.88Z" fill="#3C0C7C"/>
<path d="M429.042 142.698C428.808 142.907 428.527 142.771 428.154 142.35C428.329 142.251 428.64 142.347 429.042 142.698Z" fill="#DDDCFF"/>
<path d="M53.1185 313.254C53.2846 313.273 53.3773 313.536 53.3298 313.891C53.1414 313.821 53.0933 313.659 53.1185 313.254Z" fill="#3C0C7C"/>
<path d="M427.039 141.7C426.807 141.909 426.528 141.774 426.156 141.358C426.33 141.258 426.639 141.352 427.039 141.7Z" fill="#DDDCFF"/>
<path d="M53.1145 323.254C53.2841 323.272 53.3797 323.533 53.3363 323.888C53.145 323.82 53.0927 323.659 53.1145 323.254Z" fill="#3C0C7C"/>
<path d="M445.219 237.116C445.109 236.928 445.267 236.623 445.636 236.168C445.726 236.345 445.606 236.673 445.219 237.116Z" fill="#D4D3FF"/>
<path d="M108.996 183.044C110.071 171.172 102.838 164.892 93.5932 159.769C85.088 155.055 76.7372 150.06 68.3634 145.113C67.4489 144.573 66.8317 143.53 66.0312 142.37C71.8289 145.019 77.6994 147.966 83.5074 151.031C89.6272 154.261 95.5163 157.987 101.816 160.802C110.015 164.466 113.881 170.472 114.062 179.288C114.105 181.367 114.954 183.43 115.714 185.749C116 186.75 116.003 187.502 116.014 188.629C116.681 193.705 117.34 198.406 118.001 203.552C118.002 217.442 117.91 230.888 118.096 244.33C118.125 246.431 119.074 248.724 120.198 250.56C122.284 253.966 124.956 257.009 127.126 260.369C130.507 265.605 133.674 270.981 136.97 276.645C131.006 270.829 124.929 264.736 119.046 258.461C117.304 256.603 116.108 254.232 114.313 252.04C113.644 236.126 113.418 220.265 112.936 204.411C112.808 200.176 111.893 195.964 111.172 191.037C110.996 189.889 110.988 189.445 110.881 188.74C110.521 187.986 110.26 187.493 109.997 186.652C109.663 185.218 109.33 184.131 108.996 183.044Z" fill="#3A0A6B"/>
<path d="M310.774 306.761C307.937 308.012 304.871 309.005 301.401 309.997C304.179 308.831 307.362 307.667 310.774 306.761Z" fill="#3C0C7C"/>
<path d="M297.757 309.733C295.916 310.64 293.83 311.272 291.367 311.94C292.171 308.564 294.723 308.704 297.757 309.733Z" fill="#3C0C7C"/>
<path d="M319.771 304.738C318.243 305.645 316.486 306.283 314.363 306.96C315.846 306.155 317.694 305.313 319.771 304.738Z" fill="#3C0C7C"/>
<path d="M327.63 302.014C326.241 302.983 324.473 303.954 322.35 304.958C323.747 303.999 325.499 303.008 327.63 302.014Z" fill="#3C0C7C"/>
<path d="M282.8 311.749C282.222 312.33 281.444 312.658 280.327 312.98C280.859 312.482 281.73 311.989 282.8 311.749Z" fill="#3C0C7C"/>
<path d="M140.962 279.675C140.366 279.543 139.725 279.093 139.042 278.322C139.638 278.453 140.277 278.905 140.962 279.675Z" fill="#C9C8FF"/>
<path d="M108.644 182.994C109.33 184.131 109.663 185.218 109.539 186.652C106.755 187.002 104.427 187.065 102.103 186.99C98.2883 186.868 97.6914 189.017 98.1932 192.174C100.154 204.505 102.682 216.786 103.834 229.193C105.188 243.781 105.286 258.483 106.08 273.127C106.152 274.449 107.333 275.711 107.999 277.401C107.999 278.867 107.999 279.933 107.705 281.296C107.281 287.622 107.077 293.652 107.11 299.68C107.114 300.457 108.339 301.227 108.999 302.001C108.999 303.389 108.999 304.778 108.705 306.88C108.284 308.069 108.036 308.548 108.048 309.02C108.356 321.898 108.657 334.776 109.103 347.65C109.131 348.454 110.339 349.218 110.998 350.001C110.999 350.445 110.999 350.889 110.705 351.963C110.286 358.356 109.665 364.162 110.163 369.87C110.745 376.533 111.628 383.276 116.878 388.479C119.899 391.473 122.323 395.06 125.179 398.234C126.208 399.376 127.713 400.09 129 401C133.877 404.613 138.636 408.401 143.658 411.801C151.639 417.205 160.791 416.18 169.69 415.808C177.275 415.49 184.826 414.444 192.409 414.039C207.459 413.235 222.53 412.826 237.573 411.921C249.441 411.206 261.279 409.994 273.565 409.335C274 410.111 274 410.555 274 411.252C274.001 411.674 274.001 411.843 273.603 412.01C272.14 412.011 271.077 412.014 269.554 412.01C265.396 412.34 261.696 412.677 257.569 413.011C255.433 413.012 253.724 413.015 251.555 413.011C249.144 413.003 247.149 412.746 245.256 413.075C243.448 413.39 241.747 414.316 239.655 414.945C238.212 414.618 237.113 414.318 235.554 414.012C233.145 414.005 231.15 413.747 229.257 414.075C227.449 414.389 225.746 415.313 223.611 415.976C221.489 415.663 219.753 415.342 217.559 415.013C213.807 416.036 209.684 412.806 206.57 416.975C204.428 416.982 202.715 416.984 200.716 416.701C196.951 416.614 193.471 416.812 189.564 417.009C187.432 417.013 185.725 417.019 183.57 417.015C180.08 417.343 177.039 417.679 173.599 418.011C172.136 418.007 171.071 418.007 169.539 418.005C163.711 418.004 158.352 418.007 152.66 418.007C151.885 418.006 151.442 418.006 150.769 417.731C147.027 416.635 143.515 415.816 140.002 414.998C140 415 140.004 414.996 139.856 414.694C137.14 412.594 134.571 410.795 131.959 408.677C131.277 407.905 130.639 407.452 129.854 406.701C126.643 403.353 123.596 400.286 120.507 397.262C113.849 390.744 108.557 383.509 108.005 373.751C107.335 361.898 106.337 350.052 106.085 338.19C105.695 319.88 102.735 302.01 98.3046 284.305C96.944 278.868 95.8798 273.336 95.0517 267.792C93.7344 258.973 92.6794 250.114 91.6051 241.262C90.3518 230.933 89.4064 220.563 87.9347 210.268C86.7056 201.669 84.9739 193.139 83.3335 184.603C82.6938 181.275 82.9609 178.84 87.1614 179.021C88.8073 179.092 90.4484 179.329 92.0853 179.54C95.7251 180.01 99.3609 180.511 102.998 180.999C104.763 181.648 106.527 182.296 108.644 182.994Z" fill="#3C0C7C"/>
<path d="M122 285C120.336 279.28 118.671 273.56 117.308 267.563C118.749 269.18 119.888 271.075 121.017 273.374C122.091 276.44 122.589 279.601 124.361 281.672C131.94 290.531 142.088 295.629 153.012 298.773C178.468 306.1 203.953 313.391 229.655 319.773C244.305 323.411 259.214 326.962 274.626 324.997C283.795 323.828 293.147 323.425 302.094 321.31C338.295 312.754 372.354 298.407 405.463 281.694C406.898 280.97 407.839 279.267 409.236 277.758C414.625 274.625 419.788 271.754 424.933 269.241C423.068 271.852 421.63 274.734 419.303 276.247C409.333 282.729 399.582 289.851 388.856 294.801C370.521 303.261 351.717 310.823 332.733 317.724C314.831 324.232 296.268 329.04 277.154 329.971C262.819 330.669 248.207 331.122 234.08 329.127C218.958 326.992 204.29 321.739 189.369 318.07C170.943 313.54 154.171 305.298 138.049 295.587C132.564 292.282 127.342 288.541 122 285Z" fill="#8434CC"/>
<path d="M122.007 285.395C127.342 288.542 132.564 292.283 138.049 295.588C154.17 305.299 170.943 313.541 189.369 318.071C204.29 321.74 218.958 326.993 234.08 329.128C248.207 331.123 262.819 330.67 277.154 329.972C296.268 329.041 314.831 324.233 332.733 317.725C351.717 310.824 370.521 303.262 388.855 294.802C399.581 289.852 409.332 282.73 419.303 276.248C421.63 274.735 423.068 271.853 425.081 268.972C426.181 267.232 427.116 266.121 428.05 265.01C428.05 265.01 428.527 265.014 428.766 265.013C429.918 270.52 426.937 274.119 423.062 277.352C406.979 290.767 389.063 301.092 369.415 308.181C349.798 315.258 330.144 322.353 310.153 328.245C288.368 334.664 265.758 336.167 243.158 334.853C223.773 333.727 204.921 329.164 186.508 322.988C167.494 316.611 148.447 310.316 129.608 303.454C127.188 302.572 125.441 298.699 124.27 295.848C122.983 292.715 122.722 289.161 122.007 285.395Z" fill="#7C2CD4"/>
<path d="M107.999 281C107.999 279.934 107.999 278.868 107.999 276.933C107.994 266.117 108.213 256.163 107.933 246.224C107.454 229.263 106.609 212.312 106.094 195.351C106.051 193.921 107.333 192.451 108 191C108.677 208.58 109.581 226.154 109.952 243.74C110.21 255.956 109.734 268.188 109.043 280.706C108.333 281 108.166 281 107.999 281Z" fill="#2D0454"/>
<path d="M128.964 400.652C127.713 400.091 126.208 399.377 125.179 398.234C122.323 395.061 119.899 391.473 116.878 388.48C111.628 383.277 110.745 376.533 110.163 369.871C109.665 364.163 110.286 358.356 110.706 352.297C111.333 353.885 112.216 355.864 111.914 357.641C109.469 372.042 116.581 383.059 124.383 393.88C125.917 396.007 127.414 398.161 128.964 400.652Z" fill="#2D0454"/>
<path d="M121.027 272.969C119.888 271.075 118.749 269.181 117.314 267.128C117.02 266.968 117.019 266.488 117.035 266.249C118.318 266.584 120.058 266.809 120.777 267.786C127.163 276.462 136.012 281.69 145.545 286.063C146.477 286.491 147.135 287.518 147.6 288.592C144.094 287.57 140.946 286.108 137.685 284.969C136.992 284.726 135.888 285.658 134.627 286C129.863 281.624 125.445 277.296 121.027 272.969Z" fill="#4C0C94"/>
<path d="M110.999 349.533C110.339 349.219 109.131 348.455 109.104 347.651C108.657 334.777 108.356 321.899 108.048 309.021C108.036 308.548 108.284 308.069 108.705 307.297C109.333 310.061 109.554 313.138 110.021 316.179C111.696 327.105 110.992 338.094 110.999 349.533Z" fill="#2D0454"/>
<path d="M294 408C303.381 407.334 312.762 406.669 322.572 406.258C323.004 406.683 323.005 406.853 323.005 407.393C322.998 408.503 322.992 409.243 322.57 409.985C320.769 409.988 319.383 409.988 317.711 409.702C313.949 409.614 310.474 409.814 306.583 410.011C304.784 410.012 303.4 410.016 301.564 410.012C298.407 410.001 295.702 409.998 293.02 409.698C293.361 408.934 293.681 408.467 294 408Z" fill="#3C0C7C"/>
<path d="M107.705 281.297C108.166 281 108.333 281 108.75 281C109.001 287.688 109 294.376 108.999 301.533C108.339 301.228 107.114 300.458 107.11 299.681C107.077 293.652 107.281 287.623 107.705 281.297Z" fill="#2D0454"/>
<path d="M361.583 404.023C364.038 404.684 366.097 405.342 368.578 406.335C369.001 407.114 369.001 407.558 368.55 408.003C364.067 408.335 360.033 408.667 356 408.668C355.999 407.898 355.999 407.458 356 406.685C356.003 405.909 356.005 405.466 356.302 404.996C357.068 404.657 357.539 404.343 358.009 404.029C359.068 404.025 360.127 404.022 361.583 404.023Z" fill="#3C0C7C"/>
<path d="M278.005 408.006C281.394 408.005 284.783 408.004 288.694 408.261C289.477 409.012 289.739 409.505 289.889 410.218C289.575 410.71 289.314 410.902 288.579 411.013C286.781 411.015 285.398 411.018 283.585 411.013C281.435 411.002 279.716 410.998 277.998 410.621C278 409.5 278.003 408.753 278.005 408.006Z" fill="#3C0C7C"/>
<path d="M329.004 405.005C332.033 405.003 335.063 405.002 338.546 405.333C339 406.111 339 406.555 339.001 407.254C339.002 407.68 339.003 407.85 338.63 408.017C337.509 408.016 336.762 408.017 335.575 408.011C333.089 408 331.042 407.995 328.996 407.618C329 406.498 329.002 405.752 329.004 405.005Z" fill="#3C0C7C"/>
<path d="M356.006 405.023C356.005 405.466 356.003 405.909 355.602 406.681C354.139 407.012 353.076 407.015 351.584 407.011C349.434 407 347.715 406.995 345.996 406.617C345.999 405.497 346.001 404.751 346.004 404.004C349.033 404.004 352.062 404.003 355.546 404.258C356.003 404.683 356.004 404.853 356.006 405.023Z" fill="#3C0C7C"/>
<path d="M345.585 404.002C346.002 404.75 345.999 405.497 345.559 406.619C343.081 406.996 341.04 406.997 339 406.998C339 406.554 339 406.11 339 405.333C341.055 404.667 343.111 404.334 345.585 404.002Z" fill="#3C0C7C"/>
<path d="M328.612 405.003C329.002 405.751 329 406.497 328.61 407.619C326.484 407.671 324.745 407.347 323.006 407.023C323.005 406.853 323.004 406.683 323.001 406.257C324.74 405.668 326.48 405.334 328.612 405.003Z" fill="#3C0C7C"/>
<path d="M290.001 409.998C289.739 409.505 289.477 409.012 289.108 408.26C290.512 407.823 292.024 407.645 293.768 407.733C293.681 408.467 293.361 408.934 292.645 409.7C291.499 409.998 290.75 409.998 290.001 409.998Z" fill="#3C0C7C"/>
<path d="M277.639 408.004C278.003 408.753 278 409.5 277.598 410.623C276.132 410.998 275.066 410.999 274 410.999C274 410.555 274 410.111 274 409.335C275.09 408.669 276.181 408.335 277.639 408.004Z" fill="#3C0C7C"/>
<path d="M110.98 189.001C110.988 189.445 110.996 189.889 111.003 190.666C110.252 190.999 109.501 191 108.429 190.657C109.066 189.877 110.023 189.439 110.98 189.001Z" fill="#E5E5FF"/>
<path d="M356.302 404.997C356.005 404.852 356.003 404.682 356 404.257C356.573 403.859 357.146 403.715 357.864 403.8C357.539 404.343 357.068 404.657 356.302 404.997Z" fill="#3C0C7C"/>
<path d="M121.264 179.214C120.693 177.577 120.385 176.153 120.039 174.365C125.234 173.333 130.453 172.296 135.707 172.066C154.928 171.227 174.163 170.731 193.387 169.958C206.46 169.433 219.52 168.557 232.593 168.024C251.425 167.258 270.267 166.714 289.1 165.966C296.479 165.672 303.846 165.082 311.219 164.627C311.343 165.357 311.467 166.088 311.591 166.818C308.331 167.544 305.104 168.594 301.804 168.939C288.004 170.383 274.188 171.681 260.366 172.902C251.139 173.716 241.882 174.183 232.658 175.028C216.045 176.548 199.45 178.278 182.84 179.834C174.279 180.636 165.707 181.337 157.13 181.932C146.067 182.7 134.993 183.317 123.463 183.999C122.511 182.475 122.02 180.951 121.264 179.214Z" fill="#671DB0"/>
<path d="M180.433 140.988C180.891 142.371 180.911 143.76 180.443 145.57C172.994 146.943 166.012 147.771 159.09 148.949C157.724 149.182 156.587 150.761 155.345 151.719C156.526 152.949 157.536 154.962 158.919 155.263C163.209 156.199 167.64 156.484 172.016 157.022C169.219 157.677 166.358 159.075 163.637 158.842C156.416 158.224 149.141 157.372 142.121 155.659C138.599 154.8 135.584 151.863 132.34 149.866C135.42 148.219 138.335 145.742 141.613 145.093C149.198 143.592 156.947 142.864 164.653 142.04C169.746 141.496 174.88 141.33 180.433 140.988Z" fill="#4C0C94"/>
<path d="M181.061 155.942C181.061 155.942 181.53 155.986 181.826 156.36C183.419 156.593 184.717 156.453 186.015 156.313C187.073 156.255 188.131 156.198 189.588 156.146C192.052 156.409 194.117 156.668 196.99 156.935C203.92 156.002 210.044 155.06 216.606 154.087C221.65 153.704 226.251 153.295 230.859 153.013C242.555 152.296 254.262 151.733 265.95 150.904C270.647 150.57 275.307 149.702 280.42 149.068C282.893 149.086 284.928 149.112 287.203 149.358C288.295 149.72 289.147 149.863 290 150.007C288.723 150.671 287.512 151.62 286.153 151.941C283.312 152.612 280.393 152.953 276.866 153.713C274.484 153.666 272.743 153.335 270.592 153.002C268.454 153.667 266.726 154.332 264.611 154.997C262.484 154.666 260.744 154.335 258.585 154.003C256.111 154.335 254.055 154.669 251.582 155.012C244.776 155.681 238.388 156.34 231.787 156.739C230.049 156.653 228.524 156.827 226.585 157.003C222.779 157.672 219.388 158.339 215.996 159.007C213.928 159.334 211.859 159.661 209.396 159.997C206.957 159.739 204.917 159.278 202.869 159.241C194.829 159.093 186.785 159.146 178.749 158.923C177.819 158.897 176.924 157.608 176.415 156.477C178.232 156.013 179.647 155.978 181.061 155.942Z" fill="#7C2CD4"/>
<path d="M172.307 157C167.64 156.484 163.208 156.199 158.919 155.263C157.536 154.962 156.526 152.949 155.345 151.719C156.587 150.761 157.724 149.182 159.09 148.949C166.012 147.771 172.994 146.943 180.396 145.984C180.862 147.032 180.887 148.087 180.502 149.613C176.117 151.047 172.142 152.009 168.167 152.972C168.309 153.439 168.451 153.906 168.593 154.374C170.401 154.947 172.21 155.519 174.018 156.092C173.545 156.387 173.071 156.683 172.307 157Z" fill="#671DB0"/>
<path d="M174.344 156.074C172.21 155.519 170.401 154.946 168.593 154.374C168.451 153.906 168.309 153.439 168.167 152.972C172.142 152.009 176.117 151.047 180.471 150.008C180.908 151.651 180.966 153.371 181.043 155.516C179.647 155.978 178.232 156.013 176.394 156.085C175.537 156.099 175.103 156.077 174.344 156.074Z" fill="#7C2CD4"/>
<path d="M102.792 180.723C99.3607 180.511 95.725 180.01 92.0851 179.541C90.4483 179.33 88.8071 179.093 87.1612 179.022C82.9607 178.841 82.6937 181.276 83.3333 184.604C84.9737 193.139 86.7054 201.669 87.9345 210.268C89.4063 220.564 90.3516 230.934 91.6049 241.262C92.6792 250.115 93.7343 258.974 95.0515 267.792C95.8797 273.336 96.9439 278.868 98.3045 284.305C102.735 302.01 105.695 319.88 106.084 338.19C106.337 350.053 107.335 361.899 108.005 373.752C108.556 383.51 113.849 390.745 120.506 397.262C123.596 400.286 126.643 403.354 129.487 406.697C125.569 404.22 121.924 401.374 118.145 398.719C116.949 397.88 115.393 397.553 114.002 396.991C113.418 396.504 112.834 396.016 112.392 395.037C112.494 393.529 112.453 392.514 112.413 391.498C111.61 391.661 110.807 391.823 110.004 391.986C109.685 391.521 109.366 391.056 109.023 389.957C108.667 388.549 108.336 387.774 108.005 386.999C108.003 386.25 108.001 385.501 107.957 384.002C106.13 376.561 104.237 369.896 102.582 363.173C97.7585 343.581 92.6621 324.046 88.3957 304.332C85.6043 291.434 83.9775 278.277 82.0038 265.21C80.6974 256.561 79.6377 247.872 78.5794 239.188C77.001 226.234 75.6325 213.254 73.9555 200.314C73.0255 193.138 71.4147 186.047 70.6026 178.862C70.3161 176.327 71.4916 173.627 72.3423 171.152C79.1285 172.863 85.5721 174.425 92.0157 175.986C95.5388 177.473 99.0619 178.959 102.792 180.723Z" fill="#3C0C7C"/>
<path d="M71.9998 171.003C71.4918 173.627 70.3162 176.327 70.6027 178.862C71.4148 186.047 73.0257 193.138 73.9556 200.313C75.6326 213.254 77.0011 226.234 78.5796 239.188C79.6379 247.872 80.6975 256.561 82.004 265.21C83.9777 278.277 85.6044 291.433 88.3958 304.332C92.6622 324.046 97.7586 343.581 102.582 363.172C104.237 369.896 106.13 376.561 107.956 383.628C107.554 384.002 107.11 384.001 106.298 383.655C103.899 381.179 101.684 379.192 99.8792 376.884C96.7684 372.906 92.4183 369.121 91.2154 364.562C86.5764 346.98 82.6081 329.195 79.105 311.346C76.1796 296.44 74.1818 281.349 71.9051 266.32C69.8516 252.765 67.6368 239.221 66.1135 225.602C64.3854 210.153 63.4114 194.62 61.9651 179.137C61.5848 175.065 60.6707 171.044 60.4004 167C64.5326 168.335 68.2662 169.669 71.9998 171.003Z" fill="#3C0C7C"/>
<path d="M60.0017 166.999C60.6707 171.044 61.5848 175.065 61.9651 179.136C63.4114 194.62 64.3854 210.152 66.1135 225.602C67.6368 239.22 69.8516 252.765 71.9051 266.32C74.1818 281.349 76.1796 296.44 79.105 311.346C82.6081 329.195 86.5764 346.979 91.2154 364.562C92.4183 369.121 96.7684 372.905 99.8792 376.884C101.684 379.192 103.899 381.179 105.965 383.655C94.5437 376.93 84.2704 369.107 81.7972 354.439C80.0693 344.191 76.9791 334.179 75.0665 323.955C72.1239 308.224 69.4361 292.436 67.0795 276.607C65.0633 263.065 63.6399 249.433 61.9994 235.836C60.339 222.074 58.6371 208.315 57.1498 194.534C56.5111 188.616 56.4287 182.639 55.9584 176.7C55.8377 175.175 55.2043 173.691 54.4204 172.094C54.0297 170.936 54.0251 169.871 54.0262 168.406C54.5153 167.127 54.9987 166.247 56.0816 165.185C57.788 165.668 58.8949 166.334 60.0017 166.999Z" fill="#3C0C7C"/>
<path d="M107.786 387.108C108.336 387.774 108.667 388.549 109 389.661C108.415 389.51 107.828 389.021 107.12 388.267C107.104 387.679 107.293 387.418 107.786 387.108Z" fill="#D3D3F0"/>
<path d="M216.167 154.118C210.044 155.06 203.92 156.001 197.404 156.895C197.418 154.582 197.825 152.317 198.232 150.052C198.94 149.728 199.648 149.405 200.357 149.081C200.7 150.004 200.89 151.029 201.422 151.826C202.169 152.945 203.509 154.891 203.997 154.725C205.35 154.265 207.027 153.101 207.437 151.844C208.596 148.286 209.446 144.577 209.941 140.864C210.788 134.526 211.271 128.14 211.951 121.385C217.346 110.206 225.824 103.925 237.995 103.004C247.569 102.28 257.164 101.785 266.716 100.842C279.75 99.5558 291.436 106.161 295.052 120.069C296.658 126.243 296.82 132.781 297.968 139.093C298.216 140.457 299.881 141.564 300.894 142.789C301.596 141.455 302.733 140.179 302.917 138.778C303.476 134.519 304.131 130.183 303.867 125.932C303.609 121.774 302.268 117.683 301.863 113.38C305.867 116.422 307.543 120.427 308.111 125.426C308.886 132.243 310.442 138.971 312.017 145.955C310.493 147.106 308.616 148.038 306.308 148.615C304.914 148.522 303.95 148.784 302.987 149.047C302.562 149.079 302.137 149.111 301.174 148.84C297.128 147.341 294.949 141.141 290.161 146.064C285.837 139.477 286.072 129.496 289.759 123.448C290.832 121.687 290.936 118.47 290.079 116.548C286.243 107.943 279.372 102.944 269.863 103.114C259.471 103.299 249.094 104.373 238.71 105.065C230.249 105.629 223.467 109.479 218.493 116.172C216.611 118.705 215.736 121.986 214.052 125.696C217.157 125.358 218.62 125.199 220.041 125.34C219.684 126.785 219.368 127.93 218.707 129.22C214.106 133.908 216.223 139.073 216.755 144.464C216.448 147.925 216.307 151.022 216.167 154.118Z" fill="#8886FF"/>
<path d="M270.532 81.9775C285.493 82.0981 298.853 90.1911 301.553 100.917C300.122 100.606 298.914 100.342 297.348 100.045C296.526 99.6882 296.062 99.3662 295.263 98.6723C293.281 97.2041 291.636 96.1077 289.991 95.0113C289.991 95.0113 289.5 95.0002 289.185 94.6394C287.58 93.8515 286.291 93.4244 285.001 92.9973C283.904 92.6817 282.806 92.3661 281.328 91.7243C280.298 91.2599 279.648 91.1215 278.998 90.9832C278.56 90.9798 278.122 90.9764 277.252 90.5785C275.16 89.7874 273.504 89.0746 271.838 89.0485C264.069 88.9264 256.297 88.979 248.527 89.0009C245.147 89.0104 242.522 88.2612 243.019 84.0193C243.459 84.0179 243.899 84.0164 244.817 84.2365C245.864 84.3054 246.433 84.1528 247.001 84.0003C254.695 83.3283 262.39 82.6562 270.532 81.9775Z" fill="#AAA9F7"/>
<path d="M242.569 84.0117C242.522 88.2613 245.147 89.0105 248.527 89.001C256.298 88.9791 264.069 88.9265 271.838 89.0486C273.504 89.0748 275.16 89.7875 276.924 90.575C262.624 91.3105 248.222 91.6704 233.819 91.9762C232.349 92.0074 230.548 92.1817 229.487 91.4454C228.333 90.6453 227.359 88.8827 227.293 87.4929C227.256 86.7189 229.143 85.3036 230.31 85.1233C234.211 84.5203 238.177 84.3438 242.569 84.0117Z" fill="#9D9BFD"/>
<path d="M290.043 95.3457C291.636 96.1077 293.282 97.2041 294.967 98.6468C293.37 97.8887 291.733 96.7844 290.043 95.3457Z" fill="#9D9BFD"/>
<path d="M285.159 93.3047C286.291 93.4252 287.581 93.8523 288.94 94.6352C287.778 94.5311 286.547 94.0712 285.159 93.3047Z" fill="#9D9BFD"/>
<path d="M246.854 83.777C246.433 84.1537 245.864 84.3063 245.147 84.2375C245.568 83.8617 246.137 83.7073 246.854 83.777Z" fill="#9D9BFD"/>
<path d="M279.167 91.2313C279.648 91.1215 280.298 91.2599 280.985 91.6867C280.46 91.8099 279.898 91.6447 279.167 91.2313Z" fill="#9D9BFD"/>
<path d="M399.641 132.157C409.453 136.524 418.902 141.049 428.351 145.574C428.198 146.051 428.045 146.528 427.893 147.006C427.211 147.328 426.547 147.885 425.845 147.936C420.23 148.345 414.608 148.66 408.987 148.999C392.625 149.988 376.265 151.001 359.901 151.954C347.498 152.676 335.084 153.234 322.685 154.036C316.426 154.441 310.194 155.256 303.943 155.813C302.823 155.913 301.672 155.658 300.267 155.283C305.023 153.036 309.899 150.449 315.096 149.23C329.533 145.843 344.104 143.03 358.62 139.978C363.274 139 367.9 137.869 372.575 137.007C381.462 135.368 390.375 133.871 399.641 132.157Z" fill="#3C0C7C"/>
<path d="M220.082 125.041C218.62 125.2 217.157 125.359 214.052 125.697C215.736 121.987 216.611 118.705 218.493 116.173C223.467 109.48 230.249 105.63 238.71 105.066C249.094 104.374 259.471 103.299 269.863 103.115C279.372 102.945 286.243 107.944 290.079 116.548C290.936 118.471 290.832 121.688 289.759 123.448C286.072 129.497 285.837 139.478 290.161 146.065C294.949 141.142 297.128 147.342 300.854 148.818C297.678 149.381 294.282 149.664 290.443 149.977C289.147 149.863 288.295 149.72 287.17 148.936C285.932 139.35 285.088 130.391 283.965 121.467C282.861 112.691 277.385 106.156 268.462 106.937C257.618 107.885 246.714 108.156 235.87 109.113C227.969 109.811 223.435 114.353 222.917 121.36C221.909 122.794 220.995 123.918 220.082 125.041Z" fill="#7E7CFF"/>
<path d="M232 156.999C238.388 156.34 244.776 155.681 251.833 155.288C254.002 155.703 255.501 155.852 257.173 156.226C257.897 155.969 258.449 155.486 259.001 154.753C259.002 154.503 259.004 154.004 259.004 154.004C260.744 154.335 262.484 154.666 264.956 154.996C267.459 154.996 269.23 154.998 271.264 155.281C273.352 155.708 275.177 155.853 277.003 155.999C278.716 155.999 280.43 155.999 282.573 156.001C281.71 156.667 280.453 157.834 279.124 157.923C263.294 158.983 247.455 159.892 231.614 160.774C231.144 160.801 230.632 160.098 230.225 159.126C230.873 158.011 231.437 157.505 232 156.999Z" fill="#671DB0"/>
<path d="M295.558 155.001C293.491 155.513 290.98 156.024 288.234 156.018C288 155.333 288 155.166 288 154.999C290.371 154.999 292.742 154.999 295.558 155.001Z" fill="#D2D1FF"/>
<path d="M277.002 155.665C275.177 155.853 273.352 155.707 271.264 154.948C271.001 153.89 271.002 153.447 271.003 153.003C272.744 153.334 274.485 153.666 276.613 153.997C277 154.442 277.001 154.887 277.002 155.665Z" fill="#D2D1FF"/>
<path d="M303.362 149.056C303.95 148.785 304.914 148.523 305.929 148.586C305.232 148.962 304.485 149.014 303.362 149.056Z" fill="#7E7CFF"/>
<path d="M287.827 154.773C288 155.166 288 155.333 287.999 155.751C287.554 156.002 287.11 156.001 286.333 156C286.551 155.515 287.103 155.031 287.827 154.773Z" fill="#D2D1FF"/>
<path d="M216.088 159.396C219.388 158.339 222.78 157.671 226.585 157.336C227 158.114 227 158.559 227.001 159.004C223.641 162.685 219.912 161.262 216.088 159.396Z" fill="#671DB0"/>
<path d="M227.376 159.003C227 158.559 227 158.114 226.999 157.335C228.524 156.827 230.05 156.653 231.787 156.739C231.437 157.504 230.873 158.01 230.155 158.759C229.25 159.002 228.5 159.002 227.376 159.003Z" fill="#3C0C7C"/>
<path d="M114.126 397.287C115.393 397.552 116.949 397.879 118.145 398.719C121.925 401.373 125.569 404.219 129.676 407.315C130.725 408.092 131.364 408.544 132.003 408.996C134.571 410.795 137.14 412.594 139.472 414.69C132.295 413.135 126.32 409.635 121.114 404.682C119.266 402.923 117.046 401.553 114.996 400.006C114.996 400.006 115 400 114.997 400.002C114.746 399.197 114.499 398.39 114.126 397.287Z" fill="#3C0C7C"/>
<path d="M110.03 392.309C110.808 391.823 111.611 391.661 112.413 391.498C112.454 392.514 112.494 393.529 112.273 394.771C111.36 394.209 110.707 393.42 110.03 392.309Z" fill="#3C0C7C"/>
<path d="M134.973 286.049C135.888 285.658 136.992 284.726 137.685 284.969C140.946 286.108 144.094 287.57 147.646 288.949C151.048 289.323 154.086 289.665 157.603 290.327C158.725 291.09 159.368 291.534 160.01 291.978C165.508 293.096 171.078 293.939 176.489 295.381C195.181 300.363 213.678 306.159 232.516 310.483C249.484 314.378 266.917 316.202 284.358 314.874C308.17 313.062 330.625 305.672 352.618 296.723C369.147 289.998 385.82 283.62 402.27 276.71C410.16 273.396 417.678 269.2 425.382 265.437C425.954 265.157 426.659 265.147 427.676 265.011C427.116 266.12 426.182 267.232 425.099 268.613C419.788 271.754 414.625 274.625 408.867 277.79C401.645 280.731 395.055 283.471 388.387 286.008C366.068 294.499 343.956 303.628 321.297 311.093C308.056 315.456 294.045 318.313 280.165 319.712C259.736 321.771 239.454 318.312 219.645 313.255C197.809 307.681 176.094 301.587 154.505 295.124C147.699 293.086 141.468 289.128 134.973 286.049Z" fill="#4C0C94"/>
<path d="M159.963 291.661C159.367 291.534 158.725 291.091 158.035 290.328C158.631 290.454 159.274 290.898 159.963 291.661Z" fill="#BBBAFC"/>
<path d="M189.361 148.064C189.057 138.163 188.199 128.24 191.95 118.384C194.529 115.919 197.062 113.838 199.594 111.758C200.028 111.985 200.463 112.211 200.897 112.438C200.523 114.717 200.108 116.99 199.783 119.275C198.836 125.929 197.889 132.582 197.017 139.246C196.612 142.341 196.621 145.51 195.972 148.545C195.654 150.035 194.265 151.296 193.36 152.66C192.506 151.465 191.673 150.254 190.786 149.084C190.502 148.71 190.074 148.446 189.361 148.064Z" fill="#918FFF"/>
<path d="M185.621 156.216C184.717 156.452 183.419 156.593 182.058 156.402C183.072 156.086 184.149 156.103 185.621 156.216Z" fill="#C1C0FE"/>
<path d="M60.4004 167C58.8949 166.334 57.788 165.669 56.3301 164.998C57.3144 159.973 60.8407 160.303 64.4547 161.822C68.8153 163.656 73.014 165.874 77.6419 167.977C82.5604 170.475 87.1197 172.922 91.8474 175.678C85.5723 174.425 79.1287 172.863 72.3424 171.152C68.2662 169.669 64.5326 168.334 60.4004 167Z" fill="#2D0454"/>
<path d="M115.036 400.37C117.046 401.553 119.266 402.923 121.115 404.682C126.32 409.635 132.295 413.135 139.62 414.992C140.004 414.996 140 415 140.071 415.361C142.765 417.144 145.388 418.566 147.614 419.984C142.811 418.986 138.406 417.991 134.001 416.997C129.871 414.434 125.742 411.871 121.264 408.834C120.275 407.908 119.635 407.456 118.996 407.004C118.122 406.501 117.248 405.999 116.188 405.246C115.694 403.576 115.385 402.155 115.036 400.37Z" fill="#3C0C7C"/>
<path d="M134.147 417.291C138.406 417.992 142.811 418.986 147.945 419.986C149.116 419.992 149.558 419.992 150 420.326C150.002 421.104 150.003 421.548 149.597 421.994C145.793 421.666 142.396 421.336 138.999 421.006C138.557 421.002 138.115 420.999 137.342 420.99C136.105 419.851 135.199 418.718 134.147 417.291Z" fill="#3C0C7C"/>
<path d="M119.039 407.323C119.635 407.456 120.275 407.908 120.957 408.681C120.36 408.548 119.721 408.096 119.039 407.323Z" fill="#3C0C7C"/>
<path d="M166.008 421.011C164.82 421.83 163.633 422.649 162.224 423.732C159.257 423.966 156.512 423.937 153.387 423.617C153.004 422.882 153.002 422.439 153 421.742C153.001 421.32 153.002 421.151 153.466 420.984C157.955 420.995 161.982 421.003 166.008 421.011Z" fill="#3C0C7C"/>
<path d="M153 421.995C153.002 422.439 153.004 422.882 153.006 423.658C148.498 423.182 143.988 422.373 139.239 421.285C142.396 421.335 145.793 421.665 149.972 421.996C151.502 421.996 152.251 421.996 153 421.995Z" fill="#7C2CD4"/>
<path d="M356 408.999C360.033 408.667 364.067 408.335 368.55 408.336C369 409.112 369 409.555 369 409.999C364.972 410.332 360.945 410.665 356.457 410.663C355.998 409.884 355.999 409.442 356 408.999Z" fill="#3C0C7C"/>
<path d="M337.997 411.989C333.97 412.325 329.942 412.66 325.455 412.621C325.002 411.505 325.008 410.764 325.393 410.062C329.182 410.071 332.591 410.039 336.155 410.249C336.873 410.989 337.435 411.489 337.997 411.989Z" fill="#3C0C7C"/>
<path d="M267.291 416.993C266.539 417.029 266.11 417.028 265.359 417.031C262.874 416.883 260.711 416.731 258.274 416.042C258 415.335 258 415.165 258.415 414.986C262.219 414.654 265.607 414.331 269.105 414.265C269.477 415.012 269.74 415.502 270.003 415.993C269.207 416.314 268.41 416.635 267.291 416.993Z" fill="#3C0C7C"/>
<path d="M387.019 408.018C385.429 408.677 383.887 409.689 382.238 409.913C379.84 410.24 377.366 409.999 374.462 409.665C374 408.886 374 408.442 374.458 407.997C378.272 407.992 381.628 407.987 385.322 407.987C386.114 408.001 386.566 408.009 387.019 408.018Z" fill="#3C0C7C"/>
<path d="M320.997 412.99C316.97 413.326 312.943 413.661 308.456 413.66C307.998 412.881 307.999 412.438 308.454 411.996C311.933 411.992 314.959 411.988 318.323 411.99C319.44 412.328 320.219 412.659 320.997 412.99Z" fill="#3C0C7C"/>
<path d="M302 413.994C297.862 414.195 293.723 414.397 289.399 414.088C289.414 413.301 289.677 413.108 290.462 412.998C294.613 412.99 298.304 412.981 301.997 413.228C302 413.654 302 413.824 302 413.994Z" fill="#3C0C7C"/>
<path d="M352.998 410.992C349.302 411.327 345.605 411.662 341.452 411.661C340.997 410.882 340.999 410.439 341.458 409.997C345.272 409.993 348.628 409.988 352.204 410.095C352.7 410.407 352.891 410.668 352.998 410.992Z" fill="#3C0C7C"/>
<path d="M302.428 413.996C302 413.824 301.999 413.653 301.998 412.859C302.003 411.497 302.009 410.758 302.015 410.019C303.399 410.016 304.784 410.012 306.691 410.267C307.477 411.016 307.738 411.506 308 411.996C307.999 412.439 307.998 412.882 307.995 413.657C306.28 413.991 304.568 413.994 302.428 413.996Z" fill="#3C0C7C"/>
<path d="M285.022 414.022C282.435 417.942 278.788 415.466 275.286 415.047C275 414.337 275 414.167 275.45 413.997C278.596 413.994 281.292 413.991 284.247 413.995C284.677 414.008 284.85 414.015 285.022 414.022Z" fill="#3C0C7C"/>
<path d="M374 407.998C374 408.442 374 408.886 373.999 409.664C372.61 409.998 371.221 409.999 369.416 409.999C369 409.555 369 409.111 369 408.335C369 407.558 369.001 407.114 369.002 406.337C369.752 406.003 370.501 406.003 371.781 406.249C372.875 406.997 373.437 407.497 374 407.998Z" fill="#3C0C7C"/>
<path d="M275 413.996C275 414.166 275 414.336 274.999 414.762C273.578 415.341 272.159 415.663 270.371 415.989C269.74 415.502 269.477 415.012 269.348 414.096C269.659 413.119 269.836 412.568 270.013 412.017C271.077 412.014 272.14 412.012 273.704 412.27C274.469 413.02 274.735 413.508 275 413.996Z" fill="#3C0C7C"/>
<path d="M321.397 412.993C320.219 412.659 319.44 412.328 318.327 411.658C317.995 410.876 317.996 410.432 317.998 409.989C319.383 409.988 320.769 409.988 322.908 409.993C324.112 410.006 324.563 410.014 325.014 410.022C325.008 410.763 325.002 411.505 324.994 412.616C323.927 412.989 322.862 412.992 321.397 412.993Z" fill="#3C0C7C"/>
<path d="M341 409.997C340.998 410.439 340.997 410.882 340.994 411.657C340.244 411.991 339.495 411.993 338.372 411.992C337.435 411.49 336.873 410.99 336.157 409.917C336.007 408.902 336.011 408.461 336.014 408.019C336.762 408.017 337.509 408.016 338.785 408.257C339.876 408.999 340.438 409.498 341 409.997Z" fill="#3C0C7C"/>
<path d="M285.419 414.019C284.85 414.015 284.677 414.008 284.25 413.624C284.002 412.505 284.009 411.763 284.016 411.021C285.399 411.018 286.781 411.015 288.688 411.27C289.476 412.018 289.738 412.508 290.001 412.999C289.677 413.108 289.414 413.301 289.103 413.801C287.934 414.021 286.875 414.018 285.419 414.019Z" fill="#3C0C7C"/>
<path d="M390.015 406.025C391.629 406.427 393.244 406.828 394.936 407.591C393.499 408.151 391.984 408.349 390.236 407.95C390.006 406.911 390.011 406.468 390.015 406.025Z" fill="#3C0C7C"/>
<path d="M353.373 410.993C352.891 410.668 352.7 410.406 352.209 409.724C352 408.5 352.007 407.759 352.014 407.017C353.077 407.014 354.139 407.012 355.6 407.013C355.999 407.457 355.999 407.898 356 408.668C355.999 409.441 355.998 409.884 355.996 410.658C355.245 410.992 354.496 410.994 353.373 410.993Z" fill="#3C0C7C"/>
<path d="M389.758 406.015C390.011 406.468 390.006 406.911 390 407.686C389.252 408.017 388.507 408.015 387.39 408.015C386.566 408.01 386.114 408.001 385.328 407.617C385 406.499 385.006 405.757 385.012 405.015C386.109 405.318 387.206 405.621 388.644 405.955C389.158 405.992 389.329 405.998 389.758 406.015Z" fill="#3C0C7C"/>
<path d="M384.55 405.009C385.006 405.757 385 406.499 384.988 407.611C381.627 407.987 378.272 407.992 374.458 407.998C373.437 407.497 372.874 406.997 372.155 406.257C376.028 405.679 380.058 405.341 384.55 405.009Z" fill="#3C0C7C"/>
<path d="M166.406 421.007C161.982 421.002 157.956 420.994 153.466 420.613C152.999 419.496 152.996 418.753 152.992 418.009C158.352 418.007 163.711 418.004 169.537 418.378C170.001 419.5 169.998 420.246 169.996 420.992C168.932 420.996 167.869 421 166.406 421.007Z" fill="#3C0C7C"/>
<path d="M217.996 419.783C217.557 420.04 217.122 420.033 216.359 420.028C212.881 419.884 209.728 419.737 206.395 419.083C206.416 418.298 206.678 418.106 207.439 417.997C211.25 417.668 214.625 417.339 218 417.34C218 418.111 217.999 418.551 217.999 418.991C217.999 419.167 217.998 419.343 217.996 419.783Z" fill="#3C0C7C"/>
<path d="M189.99 417.011C193.471 416.813 196.951 416.615 200.715 417.036C200.998 418.102 200.997 418.547 200.996 418.993C200.554 418.997 200.112 419.002 198.93 418.992C195.462 418.665 192.733 418.351 190 417.781C189.994 417.353 189.992 417.182 189.99 417.011Z" fill="#3C0C7C"/>
<path d="M190.004 418.037C192.733 418.351 195.462 418.665 198.599 418.995C196.297 419.672 193.588 420.333 190.437 420.621C189.999 419.51 190.002 418.774 190.004 418.037Z" fill="#3C0C7C"/>
<path d="M190 417.781C190.001 418.774 189.998 419.511 189.993 420.616C188.251 420.666 186.511 420.347 184.385 420.013C183.999 419.997 183.993 419.978 183.994 419.609C184.003 418.501 184.011 417.763 184.018 417.025C185.725 417.019 187.432 417.014 189.564 417.01C189.992 417.182 189.994 417.353 190 417.781Z" fill="#3C0C7C"/>
<path d="M184.002 420.008C181.779 423.744 178.481 421.64 175.279 421.036C175 420.33 175 420.161 175.449 419.993C178.597 419.989 181.295 419.983 183.993 419.978C183.993 419.978 183.999 419.997 184.002 420.008Z" fill="#3C0C7C"/>
<path d="M175 419.992C175 420.161 175 420.33 175 420.752C173.61 421.004 172.22 421.003 170.413 420.997C169.998 420.246 170.001 419.5 170.005 418.381C171.072 418.007 172.136 418.006 173.708 418.266C174.476 419.015 174.738 419.503 175 419.992Z" fill="#3C0C7C"/>
<path d="M201.413 418.999C200.997 418.547 200.998 418.101 201 417.321C202.715 416.985 204.428 416.983 206.571 417.232C207.001 417.655 207.002 417.826 207.002 417.998C206.678 418.106 206.416 418.299 206.105 418.797C204.606 419.015 203.218 419.01 201.413 418.999Z" fill="#3C0C7C"/>
<path d="M223.996 415.969C225.746 415.313 227.449 414.389 229.257 414.075C231.15 413.747 233.145 414.005 235.551 414.383C236.002 415.504 235.999 416.247 235.995 416.991C235.248 416.997 234.502 417.002 232.931 417.003C229.406 416.997 226.704 416.997 224.001 416.739C223.999 416.311 223.998 416.14 223.996 415.969Z" fill="#3C0C7C"/>
<path d="M251.217 417.864C250.238 418.034 249.504 418.031 248.404 418.033C245.546 417.887 243.053 417.736 240.28 417.046C240 416.337 240 416.167 240.42 415.997C244.559 415.991 248.276 415.986 251.997 415.989C252 415.999 252.007 416.02 252.007 416.02C251.825 416.577 251.644 417.134 251.217 417.864Z" fill="#3C0C7C"/>
<path d="M224.002 416.997C226.704 416.997 229.406 416.998 232.558 417.007C230.677 420.934 226.886 418.132 223.465 418.695C223.361 417.929 223.681 417.463 224.002 416.997Z" fill="#3C0C7C"/>
<path d="M224.001 416.739C223.682 417.462 223.361 417.928 223.016 418.689C221.605 418.989 220.218 418.992 218.416 418.993C218 418.551 218 418.11 218.001 417.008C218.008 415.905 218.012 415.463 218.017 415.021C219.753 415.342 221.489 415.663 223.611 415.976C223.998 416.14 223.999 416.311 224.001 416.739Z" fill="#3C0C7C"/>
<path d="M240 415.996C240 416.166 240 416.337 239.998 416.763C238.93 417.014 237.863 417.01 236.395 416.998C235.999 416.248 236.002 415.504 236.01 414.389C237.113 414.318 238.212 414.618 239.656 415.201C240 415.656 240 415.826 240 415.996Z" fill="#3C0C7C"/>
<path d="M258 414.995C258 415.165 258 415.335 257.999 415.761C256.286 416.015 254.574 416.014 252.434 416.016C252.007 416.019 252 415.998 251.998 415.619C252.003 414.5 252.009 413.76 252.015 413.019C253.724 413.016 255.432 413.013 257.569 413.342C257.998 414.115 257.999 414.555 258 414.995Z" fill="#3C0C7C"/>
<path d="M110.881 188.74C110.023 189.44 109.066 189.877 108.054 190.658C107.333 192.451 106.051 193.922 106.094 195.352C106.609 212.312 107.454 229.263 107.933 246.224C108.213 256.163 107.994 266.117 107.999 276.533C107.333 275.712 106.152 274.45 106.08 273.128C105.286 258.484 105.188 243.782 103.834 229.194C102.682 216.787 100.153 204.506 98.1931 192.175C97.6912 189.018 98.2882 186.869 102.103 186.991C104.427 187.066 106.755 187.002 109.54 187.001C110.259 187.494 110.521 187.986 110.881 188.74Z" fill="#2D0454"/>
<path d="M251.555 413.012C252.009 413.759 252.003 414.5 251.995 415.61C248.276 415.986 244.559 415.991 240.421 415.996C240 415.826 240 415.656 240 415.229C241.747 414.316 243.448 413.39 245.256 413.076C247.149 412.746 249.144 413.003 251.555 413.012Z" fill="#3C0C7C"/>
<path d="M175.45 419.993C174.738 419.504 174.476 419.015 174.107 418.271C177.039 417.679 180.08 417.343 183.57 417.016C184.011 417.763 184.003 418.501 183.994 419.609C181.295 419.983 178.597 419.989 175.45 419.993Z" fill="#3C0C7C"/>
<path d="M217.56 415.014C218.012 415.464 218.008 415.905 218.002 416.678C214.625 417.339 211.25 417.668 207.439 417.997C207.002 417.826 207.001 417.655 207 417.227C209.684 412.806 213.807 416.036 217.56 415.014Z" fill="#3C0C7C"/>
<path d="M283.585 411.014C284.009 411.763 284.002 412.505 283.992 413.617C281.292 413.991 278.596 413.994 275.45 413.997C274.735 413.508 274.469 413.02 274.102 412.272C274.001 411.844 274.001 411.675 274 411.253C275.066 410.999 276.132 410.999 277.597 410.997C279.716 410.999 281.435 411.003 283.585 411.014Z" fill="#3C0C7C"/>
<path d="M258.415 414.987C257.999 414.555 257.998 414.115 257.997 413.345C261.696 412.678 265.396 412.341 269.554 412.011C269.836 412.568 269.659 413.119 269.239 413.839C265.607 414.331 262.218 414.654 258.415 414.987Z" fill="#3C0C7C"/>
<path d="M150 419.993C149.558 419.992 149.116 419.992 148.342 419.99C145.388 418.566 142.765 417.144 140.073 415.359C143.515 415.816 147.027 416.636 150.676 417.996C150.543 419.021 150.272 419.507 150 419.993Z" fill="#3C0C7C"/>
<path d="M150 420.326C150.272 419.507 150.543 419.021 150.907 418.271C151.442 418.006 151.885 418.006 152.66 418.007C152.996 418.752 152.999 419.496 153.003 420.61C153.002 421.15 153.001 421.319 153 421.742C152.251 421.995 151.502 421.996 150.379 421.994C150.004 421.547 150.002 421.103 150 420.326Z" fill="#3C0C7C"/>
<path d="M131.959 408.678C131.364 408.545 130.725 408.092 130.043 407.32C130.639 407.453 131.277 407.906 131.959 408.678Z" fill="#D9D9F9"/>
<path d="M134.627 286C141.468 289.128 147.699 293.086 154.505 295.124C176.094 301.587 197.809 307.681 219.644 313.255C239.454 318.312 259.736 321.771 280.165 319.712C294.045 318.313 308.056 315.456 321.297 311.093C343.956 303.628 366.068 294.499 388.387 286.008C395.054 283.471 401.645 280.731 408.64 278.052C407.839 279.267 406.898 280.97 405.463 281.695C372.354 298.408 338.295 312.754 302.094 321.311C293.147 323.426 283.794 323.829 274.625 324.998C259.214 326.963 244.305 323.412 229.655 319.774C203.953 313.391 178.468 306.1 153.012 298.774C142.088 295.63 131.94 290.531 124.361 281.673C122.589 279.601 122.091 276.44 121.017 273.375C125.445 277.296 129.863 281.623 134.627 286Z" fill="#671DB0"/>
<path d="M290.462 412.999C289.738 412.508 289.475 412.018 289.103 411.271C289.314 410.903 289.575 410.71 289.889 410.219C290.75 409.999 291.499 409.999 292.623 409.997C295.702 409.999 298.407 410.002 301.563 410.012C302.009 410.758 302.003 411.497 301.996 412.604C298.304 412.981 294.613 412.99 290.462 412.999Z" fill="#3C0C7C"/>
<path d="M317.711 409.702C317.996 410.432 317.995 410.876 317.989 411.652C314.959 411.988 311.933 411.992 308.454 411.996C307.738 411.506 307.477 411.016 307.107 410.27C310.474 409.814 313.949 409.614 317.711 409.702Z" fill="#3C0C7C"/>
<path d="M335.575 408.011C336.011 408.46 336.007 408.902 336.002 409.675C332.591 410.039 329.182 410.07 325.393 410.062C324.563 410.014 324.112 410.006 323.324 409.991C322.992 409.243 322.998 408.503 323.005 407.393C324.745 407.347 326.484 407.671 328.609 407.993C331.042 407.995 333.089 407.999 335.575 408.011Z" fill="#3C0C7C"/>
<path d="M351.584 407.011C352.007 407.759 352 408.501 351.989 409.613C348.628 409.988 345.272 409.993 341.458 409.997C340.438 409.498 339.876 408.999 339.159 408.26C339.003 407.85 339.002 407.68 339 407.254C341.04 406.998 343.081 406.997 345.558 406.993C347.715 406.995 349.434 407 351.584 407.011Z" fill="#3C0C7C"/>
<path d="M223.011 121.049C223.435 114.353 227.969 109.81 235.87 109.113C246.714 108.156 257.618 107.885 268.462 106.936C277.385 106.156 282.861 112.69 283.965 121.466C285.088 130.391 285.932 139.35 286.931 148.716C284.928 149.112 282.893 149.086 280.229 148.793C278.737 148.345 277.873 148.164 277.007 147.589C277.021 146.146 277.035 145.096 277.087 143.829C277.124 143.61 277.134 143.168 277.31 142.854C277.323 140.449 277.155 138.359 276.999 136.268C276.716 132.476 276.44 128.684 276.12 124.522C275.409 122.525 274.932 120.781 274.03 119.294C271.847 115.696 268.967 112.769 264.378 113.064C256.74 113.556 249.129 114.681 241.489 114.897C234.588 115.091 228.401 116.68 223.011 121.049Z" fill="#7473FD"/>
<path d="M277.009 147.983C277.873 148.164 278.737 148.345 279.792 148.802C275.307 149.702 270.647 150.57 265.95 150.903C254.262 151.733 242.555 152.296 230.859 153.013C226.251 153.295 221.65 153.704 216.606 154.087C216.307 151.022 216.448 147.926 217.223 144.431C227.306 143.688 236.753 143.339 246.2 142.999C252.332 142.779 258.464 142.421 264.596 142.413C268.775 142.407 272.955 142.899 277.135 143.168C277.135 143.168 277.124 143.611 276.642 143.814C269.112 145.699 261.48 143.774 254.582 146.384C254.638 146.917 254.694 147.45 254.75 147.983C262.17 147.983 269.589 147.983 277.009 147.983Z" fill="#8E32E9"/>
<path d="M258.585 154.003C259.004 154.004 259.002 154.504 258.704 154.774C257.937 155.363 257.469 155.682 257 156C255.501 155.852 254.002 155.703 252.251 155.279C254.056 154.669 256.111 154.335 258.585 154.003Z" fill="#3C0C7C"/>
<path d="M270.592 153.002C271.002 153.447 271.001 153.89 271 154.667C269.229 154.998 267.459 154.996 265.343 154.995C266.726 154.332 268.454 153.666 270.592 153.002Z" fill="#3C0C7C"/>
<path d="M277.31 142.853C272.955 142.898 268.775 142.407 264.596 142.413C258.464 142.421 252.332 142.778 246.2 142.999C236.753 143.338 227.306 143.688 217.391 144.067C216.223 139.074 214.106 133.908 218.867 129.596C227.518 129.215 235.661 128.494 243.817 128.026C252.049 127.553 260.304 127.47 268.529 126.915C271.107 126.741 273.619 125.594 276.162 124.892C276.441 128.684 276.716 132.476 276.999 136.268C277.155 138.359 277.323 140.449 277.31 142.853Z" fill="#3C0C7C"/>
<path d="M276.12 124.522C273.619 125.594 271.107 126.742 268.529 126.916C260.304 127.47 252.049 127.553 243.817 128.026C235.661 128.495 227.518 129.216 219.21 129.451C219.368 127.931 219.684 126.786 220.041 125.341C220.995 123.918 221.909 122.794 222.917 121.36C228.402 116.68 234.588 115.092 241.489 114.897C249.13 114.682 256.74 113.556 264.379 113.065C268.968 112.769 271.848 115.696 274.03 119.294C274.932 120.781 275.409 122.525 276.12 124.522Z" fill="black"/>
<path d="M257.173 156.226C257.468 155.681 257.937 155.363 258.703 155.023C258.448 155.485 257.897 155.968 257.173 156.226Z" fill="#D2D1FF"/>
<path d="M277.008 147.589C269.589 147.984 262.17 147.984 254.75 147.984C254.694 147.45 254.638 146.917 254.583 146.384C261.48 143.774 269.112 145.699 276.604 144.032C277.035 145.097 277.021 146.146 277.008 147.589Z" fill="#9D9BFD"/>
</svg>
